<?xml version="1.0" encoding="UTF-8"?>
<svg width="80px" height="80px" viewBox="0 0 80 80" version="1.1" xmlns="http://www.w3.org/2000/svg" xmlns:xlink="http://www.w3.org/1999/xlink">
    <!-- Generator: Sketch 61.2 (89653) - https://sketch.com -->
    <title>icon_service_idea</title>
    <desc>Created with Sketch.</desc>
    <defs>
        <rect id="path-1" x="0" y="0" width="80" height="79.1752577"></rect>
    </defs>
    <g id="Page-1" stroke="none" stroke-width="1" fill="none" fill-rule="evenodd">
        <g id="产品服务_智能教练" transform="translate(-481.000000, -1070.000000)">
            <g id="智能教练" transform="translate(0.000000, 700.000000)">
                <g id="Repeat-Group" transform="translate(375.000000, 351.000000)">
                    <g id="template/service/icon_text">
                        <g id="为什么">
                            <g id="icon/display/video" transform="translate(106.000000, 19.000000)">
                                <g id="icon/service/idea">
                                    <g id="Group-+-Oval-Mask">
                                        <mask id="mask-2" fill="white">
                                            <use xlink:href="#path-1"></use>
                                        </mask>
                                        <g id="Mask"></g>
                                        <g id="Group" mask="url(#mask-2)" fill="#F47E14" fill-rule="nonzero">
                                            <g transform="translate(37.750609, 41.650631) rotate(-330.000000) translate(-37.750609, -41.650631) translate(6.250609, 14.150631)">
                                                <path d="M37.8692855,0.743354797 C40.7252268,6.04137601 42.4742268,14.8226743 42.4742268,24.742268 L42.4742268,24.742268 L42.4728392,25.225772 C42.3813505,41.1508752 37.7747428,54.0206186 31.3402062,54.0206186 C24.8406743,54.0206186 20.2061856,40.8895672 20.2061856,24.742268 C20.2061856,14.8226743 21.9551856,6.04137601 24.8111268,0.743354797 L27.6297076,0.744020291 C24.8093913,5.13386731 22.6804124,14.220871 22.6804124,24.742268 C22.6804124,39.5684641 26.9079163,51.5463918 31.3402062,51.5463918 C35.7724961,51.5463918 40,39.5684641 40,24.742268 L40,24.742268 L39.9987358,24.2983458 C39.9398558,13.9646455 37.8308461,5.07018357 35.0498492,0.742688745 Z" id="Combined-Shape"></path>
                                                <path d="M31.3402062,-4.53608247 C24.8406743,-4.53608247 20.2061856,8.59496884 20.2061856,24.742268 C20.2061856,40.8895672 24.8406743,54.0206186 31.3402062,54.0206186 C37.7747428,54.0206186 42.3813505,41.1508752 42.4728392,25.225772 L42.4742268,24.742268 C42.4742268,8.59496884 37.8397381,-4.53608247 31.3402062,-4.53608247 Z M31.3402062,-2.06185567 C35.7281732,-2.06185567 39.9154294,9.67771124 39.9987358,24.2983458 L40,24.742268 C40,39.5684641 35.7724961,51.5463918 31.3402062,51.5463918 C26.9079163,51.5463918 22.6804124,39.5684641 22.6804124,24.742268 C22.6804124,9.916072 26.9079163,-2.06185567 31.3402062,-2.06185567 Z" id="Oval-Copy" transform="translate(31.340206, 24.742268) rotate(120.000000) translate(-31.340206, -24.742268) "></path>
                                                <path d="M31.3402062,-4.53608247 C24.8406743,-4.53608247 20.2061856,8.59496884 20.2061856,24.742268 C20.2061856,40.8895672 24.8406743,54.0206186 31.3402062,54.0206186 C37.7747428,54.0206186 42.3813505,41.1508752 42.4728392,25.225772 L42.4742268,24.742268 C42.4742268,8.59496884 37.8397381,-4.53608247 31.3402062,-4.53608247 Z M31.3402062,-2.06185567 C35.7281732,-2.06185567 39.9154294,9.67771124 39.9987358,24.2983458 L40,24.742268 C40,39.5684641 35.7724961,51.5463918 31.3402062,51.5463918 C26.9079163,51.5463918 22.6804124,39.5684641 22.6804124,24.742268 C22.6804124,9.916072 26.9079163,-2.06185567 31.3402062,-2.06185567 Z" id="Oval-Copy-2" transform="translate(31.340206, 24.742268) rotate(240.000000) translate(-31.340206, -24.742268) "></path>
                                            </g>
                                        </g>
                                        <circle id="Oval" fill="#F47E14" mask="url(#mask-2)" cx="53.3814433" cy="14.7938144" r="4.12371134"></circle>
                                    </g>
                                    <g id="empty" transform="translate(1.000000, -0.000000)">
                                        <rect x="0" y="0" width="79.1752577" height="79.1752577"></rect>
                                    </g>
                                </g>
                            </g>
                        </g>
                    </g>
                </g>
            </g>
        </g>
    </g>
</svg>