<?xml version="1.0" encoding="UTF-8"?>
<svg width="80px" height="79px" viewBox="0 0 80 79" version="1.1" xmlns="http://www.w3.org/2000/svg" xmlns:xlink="http://www.w3.org/1999/xlink">
    <!-- Generator: Sketch 61.2 (89653) - https://sketch.com -->
    <title>icon_service_skill</title>
    <desc>Created with Sketch.</desc>
    <g id="Page-1" stroke="none" stroke-width="1" fill="none" fill-rule="evenodd">
        <g id="产品服务_智能教练" transform="translate(-774.000000, -1070.000000)">
            <g id="智能教练" transform="translate(0.000000, 700.000000)">
                <g id="Repeat-Group" transform="translate(375.000000, 351.000000)">
                    <g id="template/service/icon_text" transform="translate(293.000000, 0.000000)">
                        <g id="为什么">
                            <g id="icon/display/video" transform="translate(106.000000, 19.000000)">
                                <g id="icon/service/skill">
                                    <rect id="Rectangle" stroke="#F47E14" stroke-width="2.5" x="11.6666667" y="13.9895833" width="56.6666667" height="37.8541667" rx="4.16666667"></rect>
                                    <path d="M19.2395833,29.5885417 L24.703525,35.1216472 C24.8652169,35.2853858 25.1290304,35.287045 25.292769,35.1253531 C25.2940121,35.1241256 25.2952474,35.1228903 25.296475,35.1216472 L30.7604167,29.5885417 L30.7604167,29.5885417" id="Path" stroke="#F47E14" stroke-width="2.5" stroke-linecap="round" transform="translate(25.000000, 32.505208) rotate(90.000000) translate(-25.000000, -32.505208) "></path>
                                    <path d="M49.2395833,29.5885417 L54.703525,35.1216472 C54.8652169,35.2853858 55.1290304,35.287045 55.292769,35.1253531 C55.2940121,35.1241256 55.2952474,35.1228903 55.296475,35.1216472 L60.7604167,29.5885417 L60.7604167,29.5885417" id="Path-Copy" stroke="#F47E14" stroke-width="2.5" stroke-linecap="round" transform="translate(55.000000, 32.505208) scale(-1, 1) rotate(90.000000) translate(-55.000000, -32.505208) "></path>
                                    <line x1="43.9854474" y1="39.2746476" x2="35.9029481" y2="25.4423851" id="Path-2" stroke="#F47E14" stroke-width="2.5" stroke-linecap="round" transform="translate(39.944198, 32.358516) rotate(75.000000) translate(-39.944198, -32.358516) "></line>
                                    <line x1="16.6666667" y1="63.7760417" x2="62.9166667" y2="63.7760417" id="Path-3" stroke="#F47E14" stroke-width="2.5" stroke-linecap="round"></line>
                                    <line x1="34.5833333" y1="52.2552083" x2="30.4166667" y2="62.953125" id="Path-3-Copy" stroke="#F47E14" stroke-width="2.5" stroke-linecap="round"></line>
                                    <line x1="50.4166667" y1="52.2552083" x2="45.8333333" y2="62.953125" id="Path-3-Copy-2" stroke="#F47E14" stroke-width="2.5" stroke-linecap="round" transform="translate(47.916667, 57.604167) scale(-1, 1) translate(-47.916667, -57.604167) "></line>
                                    <g id="empty">
                                        <rect x="0" y="0" width="80" height="79"></rect>
                                    </g>
                                </g>
                            </g>
                        </g>
                    </g>
                </g>
            </g>
        </g>
    </g>
</svg>