<?xml version="1.0" encoding="UTF-8"?>
<svg width="80px" height="79px" viewBox="0 0 80 79" version="1.1" xmlns="http://www.w3.org/2000/svg" xmlns:xlink="http://www.w3.org/1999/xlink">
    <!-- Generator: Sketch 61.2 (89653) - https://sketch.com -->
    <title>icon_service_service</title>
    <desc>Created with Sketch.</desc>
    <g id="Page-1" stroke="none" stroke-width="1" fill="none" fill-rule="evenodd">
        <g id="产品服务_智能教练" transform="translate(-1067.000000, -1070.000000)">
            <g id="智能教练" transform="translate(0.000000, 700.000000)">
                <g id="Repeat-Group" transform="translate(375.000000, 351.000000)">
                    <g id="template/service/icon_text" transform="translate(586.000000, 0.000000)">
                        <g id="为什么">
                            <g id="icon/display/video" transform="translate(106.000000, 19.000000)">
                                <g id="icon/service/service">
                                    <g id="Group" transform="translate(10.309278, 14.659794)">
                                        <path d="M4.41314274,0.130604548 L47.2410833,2.39447662 C48.6046728,2.46878029 49.6521162,3.63208859 49.5834737,4.99597474 L47.8978822,37.4363229 C47.8291927,38.8010749 46.6654552,39.8498509 45.3008184,39.7789447 C45.3000791,39.7789063 45.2993399,39.7788676 45.2987179,39.7766119 L2.47077735,37.5127399 C1.1071879,37.4384362 0.0597444398,36.2751279 0.128386945,34.9112418 L1.81397844,2.47089358 C1.88266793,1.10614156 3.04640546,0.0573656162 4.4110423,0.128271768 C4.41178152,0.128310178 4.41252072,0.128348919 4.41314274,0.130604548 Z" id="Rectangle" stroke="#F47E14" stroke-width="2.4742268"></path>
                                        <path d="M55.7195801,10.667664 L58.0498743,43.0692 C58.1478972,44.4321574 57.1224651,45.6165159 55.7595077,45.7145388 C55.7562531,45.7147729 55.7529981,45.7150005 55.7497425,45.7152217 L12.961782,48.6223853 C11.6022664,48.7147555 10.4239669,47.6904911 10.3262096,46.3313522 L9.7190731,37.8950657 L45.2987179,39.7766119 C45.2990289,39.7777398 45.2993692,39.7783134 45.2997242,39.7786098 C46.6654552,39.8498509 47.8291927,38.8010749 47.8978822,37.4363229 L47.8978822,37.4363229 L49.3940731,8.62706572 L53.0840057,8.37661453 C54.4435281,8.28424345 55.6218313,9.30851772 55.7195801,10.667664 Z" id="Combined-Shape" stroke="#F47E14" stroke-width="2.4742268"></path>
                                        <path d="M22.187467,19.9479678 C22.187467,24.8957559 18.1257204,28.9067307 13.115302,28.9067307 C8.10488369,28.9067307 4.04313709,24.8957559 4.04313709,19.9479678 C4.04313709,15.0001797 8.10488369,10.9892049 13.115302,10.9892049 L13.115302,10.9892049 L13.115302,19.9479678 Z" id="Combined-Shape" fill="#F47E14"></path>
                                        <path d="M13.9400443,10.1747719 C18.9504627,10.1747719 23.0122093,14.1857467 23.0122093,19.1335348 L23.0122093,19.1335348 L13.9400443,19.1335348 Z" id="Combined-Shape" fill="#F47E14"></path>
                                        <line x1="27.9606629" y1="27.2778647" x2="43.630766" y2="28.0922977" id="Path-2-Copy-2" stroke="#F47E14" stroke-width="2.4742268" stroke-linecap="round"></line>
                                        <line x1="28.373034" y1="20.7624008" x2="44.0431371" y2="21.5768338" id="Path-2-Copy-3" stroke="#F47E14" stroke-width="2.4742268" stroke-linecap="round"></line>
                                        <line x1="28.7854051" y1="14.2469368" x2="44.4555082" y2="15.0613698" id="Path-2-Copy-4" stroke="#F47E14" stroke-width="2.4742268" stroke-linecap="round"></line>
                                    </g>
                                    <g id="empty">
                                        <rect x="0" y="0" width="79.1752577" height="78.185567"></rect>
                                    </g>
                                </g>
                            </g>
                        </g>
                    </g>
                </g>
            </g>
        </g>
    </g>
</svg>