<?xml version="1.0" encoding="UTF-8"?>
<svg width="49px" height="48px" viewBox="0 0 49 48" version="1.1" xmlns="http://www.w3.org/2000/svg" xmlns:xlink="http://www.w3.org/1999/xlink">
    <!-- Generator: Sketch 61.2 (89653) - https://sketch.com -->
    <title>icon_contact_email_bor</title>
    <desc>Created with Sketch.</desc>
    <g id="Page-1" stroke="none" stroke-width="1" fill="none" fill-rule="evenodd">
        <g id="关于我们" transform="translate(-938.000000, -4685.000000)">
            <g id="联系我们" transform="translate(-2.000000, 4403.000000)">
                <g id="Repeat-Group" transform="translate(377.000000, 242.000000)">
                    <g id="template/card/contact" transform="translate(408.000000, 0.000000)">
                        <g id="Group-2">
                            <g transform="translate(101.000000, 40.000000)">
                                <g id="Group" transform="translate(54.500000, 0.000000)">
                                    <g id="icon/contact/phone">
                                        <g id="icon/contact/email_bor">
                                            <g>
                                                <path d="M9.8,13 L38.7,13 C39.1418278,13 39.5,13.3581722 39.5,13.8 L39.5,33.7 C39.5,34.1418278 39.1418278,34.5 38.7,34.5 L9.8,34.5 C9.3581722,34.5 9,34.1418278 9,33.7 L9,13.8 C9,13.3581722 9.3581722,13 9.8,13 Z M10.6052632,14.9925926 L10.6052632,32.5074074 C10.6052632,32.7283213 10.7843493,32.9074074 11.0052632,32.9074074 L37.4947368,32.9074074 C37.7156507,32.9074074 37.8947368,32.7283213 37.8947368,32.5074074 L37.8947368,14.9925926 C37.8947368,14.7716787 37.7156507,14.5925926 37.4947368,14.5925926 L11.0052632,14.5925926 C10.7843493,14.5925926 10.6052632,14.7716787 10.6052632,14.9925926 Z" id="Rectangle" fill="currentColor" fill-rule="nonzero"></path>
                                                <path d="M12.662306,17.8135198 L12.657819,17.8194718 C12.3982035,18.1638495 12.4669168,18.6534827 12.8112945,18.9130982 C12.8147873,18.9157313 12.8183021,18.918335 12.8218387,18.920909 L23.0292221,26.3502663 C23.3098439,26.5545145 23.6901561,26.5545145 23.9707779,26.3502663 L34.1781613,18.920909 C34.5268528,18.6671169 34.6037839,18.1787074 34.3499918,17.830016 C34.3474178,17.8264794 34.3448141,17.8229646 34.342181,17.8194718 L34.337694,17.8135198 C34.0748795,17.4648987 33.5810923,17.3913668 33.2281042,17.6482862 L23.735389,24.5574783 C23.595078,24.6596024 23.404922,24.6596024 23.264611,24.5574783 L13.7718958,17.6482862 C13.4189077,17.3913668 12.9251205,17.4648987 12.662306,17.8135198 Z" id="Path" fill="currentColor" fill-rule="nonzero"></path>
                                                <g id="empty">
                                                    <rect x="0" y="0" width="48" height="48"></rect>
                                                </g>
                                            </g>
                                        </g>
                                    </g>
                                </g>
                            </g>
                        </g>
                    </g>
                </g>
            </g>
        </g>
    </g>
</svg>