<?xml version="1.0" encoding="UTF-8"?>
<svg width="49px" height="48px" viewBox="0 0 49 48" version="1.1" xmlns="http://www.w3.org/2000/svg" xmlns:xlink="http://www.w3.org/1999/xlink">
    <!-- Generator: Sketch 58 (84663) - https://sketch.com -->
    <title>icon_contact_adress</title>
    <desc>Created with Sketch.</desc>
    <g id="Page-1" stroke="none" stroke-width="1" fill="none" fill-rule="evenodd">
        <g id="关于我们_联系我们" transform="translate(-1325.000000, -1296.000000)">
            <g id="公司简介" transform="translate(-5.000000, 880.000000)">
                <g id="Repeat-Group" transform="translate(380.000000, 376.000000)">
                    <g id="template/card/contact" transform="translate(780.000000, 0.000000)">
                        <g id="Group-2">
                            <g transform="translate(38.000000, 40.000000)">
                                <g id="Group" transform="translate(132.500000, 0.000000)">
                                    <g id="icon/contact/phone">
                                        <g id="icon/contact/adress">
                                            <g id="Group" transform="translate(13.000000, 9.000000)" fill-rule="nonzero">
                                                <path d="M7.17677091,0.813186288 C8.59970217,0.272783221 9.94124801,0 11.2009303,0 C17.3860057,0 22.4,5.00871813 22.4,11.1872851 C22.4,13.487091 21.6904679,15.7310203 20.3680107,17.6135545 L12.3766555,28.9892524 C11.9209817,29.6379043 11.025195,29.7947326 10.3758599,29.3395383 C10.2395289,29.2439681 10.1208759,29.12544 10.025205,28.9892524 L2.02070444,17.594842 C-1.51076757,12.5677902 -0.294067585,5.6327484 4.73827984,2.10499266 C5.49431391,1.57500073 6.31343962,1.1410636 7.17677091,0.813186288 Z M7.68719727,2.15435904 C6.93526356,2.43992961 6.22183149,2.81787485 5.5633502,3.27948072 C1.18033793,6.35204218 0.120631493,12.3922399 3.1964297,16.7706398 L10.9071011,27.7467843 C11.0210999,27.9090617 11.245066,27.9481992 11.4073434,27.8342004 C11.4413165,27.8103344 11.4708935,27.7807575 11.4947594,27.7467843 L19.1922838,16.7893547 L19.1922838,16.7893547 C20.3451291,15.1482651 20.9636605,13.1921297 20.9636605,11.1872851 C20.9636605,5.80115176 16.5927373,1.434828 11.2009303,1.434828 C10.1258753,1.434828 8.95479034,1.67295056 7.68719727,2.15435904 Z" id="Rectangle" fill="#F47E14"></path>
                                                <circle id="Oval" stroke="#F47E14" stroke-width="1.43633945" cx="11.2" cy="12.4" r="4.4"></circle>
                                            </g>
                                            <circle id="Oval" stroke="#F47E14" cx="24" cy="24" r="23.5"></circle>
                                            <g id="empty">
                                                <rect x="0" y="0" width="48" height="48"></rect>
                                            </g>
                                        </g>
                                    </g>
                                </g>
                            </g>
                        </g>
                    </g>
                </g>
            </g>
        </g>
    </g>
</svg>