<?xml version="1.0" encoding="UTF-8"?>
<svg width="18px" height="35px" viewBox="0 0 18 35" version="1.1" xmlns="http://www.w3.org/2000/svg" xmlns:xlink="http://www.w3.org/1999/xlink">
    <!-- Generator: Sketch 61.2 (89653) - https://sketch.com -->
    <title>icon_arrow_bottom</title>
    <desc>Created with Sketch.</desc>
    <g id="Page-1" stroke="none" stroke-width="1" fill="none" fill-rule="evenodd">
        <g id="home" transform="translate(-956.000000, -3994.000000)" fill="#FFFFFF" fill-rule="nonzero">
            <g id="企业风采" transform="translate(0.000000, 3449.000000)">
                <g id="icon/arrow/bottom" transform="translate(956.000000, 545.000000)">
                    <path d="M4.26315789,13.1052632 L4.26315789,3.63157895 C4.26315789,3.28276753 3.98039037,3 3.63157895,3 C3.28276753,3 3,3.28276753 3,3.63157895 L3,13.7368421 C3,14.4344649 3.56553505,15 4.26315789,15 L14.3684211,15 C14.7172325,15 15,14.7172325 15,14.3684211 C15,14.0196096 14.7172325,13.7368421 14.3684211,13.7368421 L4.89473684,13.7368421 C4.54592542,13.7368421 4.26315789,13.4540746 4.26315789,13.1052632 Z" id="Path" transform="translate(9.000000, 9.000000) rotate(-45.000000) translate(-9.000000, -9.000000) "></path>
                    <path d="M4.26315789,30.1052632 L4.26315789,20.6315789 C4.26315789,20.2827675 3.98039037,20 3.63157895,20 C3.28276753,20 3,20.2827675 3,20.6315789 L3,30.7368421 C3,31.4344649 3.56553505,32 4.26315789,32 L14.3684211,32 C14.7172325,32 15,31.7172325 15,31.3684211 C15,31.0196096 14.7172325,30.7368421 14.3684211,30.7368421 L4.89473684,30.7368421 C4.54592542,30.7368421 4.26315789,30.4540746 4.26315789,30.1052632 Z" id="Path-Copy" transform="translate(9.000000, 26.000000) rotate(-45.000000) translate(-9.000000, -26.000000) "></path>
                </g>
            </g>
        </g>
    </g>
</svg>