<?xml version="1.0" encoding="UTF-8"?>
<svg width="79px" height="79px" viewBox="0 0 79 79" version="1.1" xmlns="http://www.w3.org/2000/svg" xmlns:xlink="http://www.w3.org/1999/xlink">
    <!-- Generator: Sketch 61.2 (89653) - https://sketch.com -->
    <title>icon_service_money</title>
    <desc>Created with Sketch.</desc>
    <g id="Page-1" stroke="none" stroke-width="1" fill="none" fill-rule="evenodd">
        <g id="产品服务_智能教练" transform="translate(-1360.000000, -1070.000000)">
            <g id="智能教练" transform="translate(0.000000, 700.000000)">
                <g id="Repeat-Group" transform="translate(375.000000, 351.000000)">
                    <g id="template/service/icon_text" transform="translate(879.000000, 0.000000)">
                        <g id="为什么">
                            <g id="icon/display/video" transform="translate(106.000000, 19.000000)">
                                <g id="icon/service/money">
                                    <g id="Group" transform="translate(13.120000, 11.741375)">
                                        <rect id="Rectangle" stroke="#F47E14" stroke-width="2.46" x="0" y="20.24375" width="52.48" height="34.0095" rx="2.46"></rect>
                                        <path d="M34.742375,29.151 L52.48,29.151 L52.48,29.151 L52.48,46.15575 L34.742375,46.15575 C30.046643,46.15575 26.24,42.349107 26.24,37.653375 C26.24,32.957643 30.046643,29.151 34.742375,29.151 Z" id="Rectangle-Copy-5" stroke="#F47E14" stroke-width="2.46"></path>
                                        <path d="M7.68335746,5.42411561 L23.01258,7.28227851 L17.71036,20.2431603 L28.14858,20.2422785 L28.14858,20.2432785 L5.01658,20.2432785 L6.77092164,6.13697495 C6.82668088,5.68852888 7.23474378,5.36972131 7.68335746,5.42411561 Z" id="Combined-Shape" stroke="#F47E14" stroke-width="2.46"></path>
                                        <path d="M26.7480596,0.30122419 L46.5129037,8.1869206 C46.9335345,8.35474217 47.138477,8.83177712 46.9706554,9.25240798 C46.9697703,9.25462632 46.9688756,9.25684078 46.9679712,9.2590513 L42.47336,20.2431603 L17.71036,20.2431603 L25.6852565,0.752332574 C25.8556884,0.335771616 26.3300254,0.134438593 26.7480596,0.30122419 Z" id="Combined-Shape" stroke="#F47E14" stroke-width="2.46"></path>
                                        <ellipse id="Oval" fill="#F47E14" cx="36.49" cy="37.653375" rx="3.69" ry="3.643875"></ellipse>
                                        <path d="M29.0855293,8.21700801 L31.822576,9.30902369 L31.9119853,15.4311906 L36.2322625,11.0683823 L38.9693092,12.160398 L34.2097529,16.3479445 L35.8148112,16.9883241 L35.1608761,18.5866384 L32.744841,17.6226987 L32.2917885,18.0094926 L31.9751462,18.7834132 L34.6446115,19.8484655 L34.4825479,20.243008 L28.3895479,20.243008 L28.7531179,19.3571202 L26.1005479,18.2988087 L26.754483,16.7004944 L29.407053,17.7588059 L29.7236952,16.9848853 L29.6867826,16.4026071 L27.2707475,15.4386673 L27.9246826,13.840353 L29.5297409,14.4807325 L29.0855293,8.21700801 Z" id="Combined-Shape" fill="#F47E14" fill-rule="nonzero"></path>
                                    </g>
                                    <g id="empty">
                                        <rect x="0" y="0" width="78.72" height="77.736"></rect>
                                    </g>
                                </g>
                            </g>
                        </g>
                    </g>
                </g>
            </g>
        </g>
    </g>
</svg>