<?xml version="1.0" encoding="UTF-8"?>
<svg width="163px" height="49px" viewBox="0 0 163 49" version="1.1" xmlns="http://www.w3.org/2000/svg" xmlns:xlink="http://www.w3.org/1999/xlink">
    <!-- Generator: Sketch 61.2 (89653) - https://sketch.com -->
    <title>logo</title>
    <desc>Created with Sketch.</desc>
    <defs>
        <polygon id="path-1" points="0 47.5471698 162.33917 47.5471698 162.33917 0.101433962 0 0.101433962"></polygon>
    </defs>
    <g id="Page-1" stroke="none" stroke-width="1" fill="none" fill-rule="evenodd">
        <g id="home" transform="translate(-375.000000, -12.000000)">
            <g id="template/pagetitle">
                <g id="logo">
                    <g transform="translate(375.000000, 12.000000)">
                        <polygon id="Fill-1" fill="#F47E14" points="12.7317736 0.453554717 0 47.5728 14.0377358 47.5728 26.7695094 0.453554717"></polygon>
                        <polygon id="Fill-2" fill="#F47E14" points="105.463426 27.0928755 105.793992 27.0928755 105.463426 26.5771019"></polygon>
                        <polygon id="Fill-3" fill="#F47E14" points="148.301525 0.453554717 140.690355 10.4642717 134.880091 10.4642717 137.618808 0.453554717 136.040242 0.453554717 123.581072 0.453554717 116.29277 27.0944604 130.330506 27.0944604 133.393449 15.8977811 139.111336 15.8977811 144.052166 27.0944604 158.089902 27.0944604 152.211713 13.7740075 152.21126 13.7740075 162.33926 0.453554717"></polygon>
                        <g id="Group-65" transform="translate(0.000000, 0.351396)">
                            <path d="M45.6555623,13.4226113 L49.4330717,5.53612075 L53.6856,5.53612075 L54.2484679,13.4226113 L45.6555623,13.4226113 Z M55.1985057,26.7430642 L69.2362415,26.7430642 L67.3357132,0.102158491 L60.3177509,0.102158491 L54.4191849,0.102158491 L53.2979774,0.102158491 L52.0336755,0.102158491 L52.0341283,0.10170566 L45.2914868,0.10170566 C40.7088453,0.355290566 36.7782792,3.03151698 34.7541283,6.86698868 L34.3194113,7.78623396 C34.3058264,7.80434717 34.2967698,7.82246038 34.2922415,7.84057358 L25.240166,26.7417057 L39.2779019,26.7417057 L40.4733736,24.242083 L43.0526943,18.8565736 L54.6360906,18.8565736 L55.1985057,26.7430642 Z" id="Fill-4" fill="#F47E14"></path>
                            <path d="M117.517811,2.0850566 C117.508755,2.0669434 117.49517,2.04430189 117.486113,2.02618868 C117.477057,2.00807547 117.463472,1.98543396 117.449887,1.96732075 C117.377434,1.836 117.300453,1.71373585 117.214415,1.596 C117.214415,1.596 117.209887,1.596 117.209887,1.5914717 C116.847623,1.1114717 116.372151,0.722037736 115.824226,0.459396226 C115.403094,0.255622642 114.936679,0.133358491 114.443094,0.110716981 C114.37517,0.101660377 114.307245,0.101660377 114.234792,0.101660377 L105.264226,0.101660377 L105.263774,0.102113208 L88.7001509,0.102113208 L88.6996981,0.101660377 L81.4498868,0.101660377 C81.3819623,0.101660377 81.3095094,0.101660377 81.2415849,0.110716981 C79.9057358,0.183169811 78.7600755,0.962037736 78.1668679,2.0805283 L78.1668679,2.0850566 C78.1215849,2.17562264 78.0763019,2.25713208 78.0400755,2.35222642 C78.0355472,2.35675472 78.0355472,2.36128302 78.0355472,2.36581132 C77.8453585,2.80958491 77.7412075,3.29864151 77.7412075,3.81033962 C77.7412075,4.54392453 77.9540377,5.23222642 78.3253585,5.80732075 L88.2695094,21.3076981 L77.3698868,21.3076981 C77.3200755,21.3076981 77.2657358,21.3076981 77.2159245,21.3122264 C76.2423396,21.366566 75.4046038,21.9371321 74.9744151,22.7567547 L74.9744151,22.761283 C74.9381887,22.8292075 74.9064906,22.8880755 74.8793208,22.956 C74.8747925,22.9605283 74.8747925,22.9650566 74.8747925,22.9650566 C74.7615849,23.2367547 74.6891321,23.5310943 74.6710189,23.8390189 L74.6710189,24.2239245 C74.7389434,25.2156226 75.3457358,26.0578868 76.1925283,26.4744906 C76.5457358,26.646566 76.9487547,26.7416604 77.3698868,26.7416604 L91.7563019,26.7416604 L99.0151698,26.7416604 C101.061962,26.7416604 102.723849,25.0843019 102.723849,23.0329811 C102.723849,22.4126038 102.569887,21.8239245 102.298189,21.3076981 L102.307245,21.3076981 L102.266491,21.2488302 C102.257434,21.230717 102.243849,21.2080755 102.230264,21.1899623 L101.994792,20.8186415 C101.994792,20.8186415 101.990264,20.8186415 101.990264,20.8141132 L92.1869434,5.53607547 L103.540302,5.53607547 L101.315547,12.5499623 L115.353283,12.5499623 L117.775925,4.91071698 C117.884604,4.56656604 117.943472,4.19524528 117.943472,3.81033962 C117.943472,3.18996226 117.789509,2.60128302 117.517811,2.0850566" id="Fill-6" fill="#F47E14"></path>
                            <path d="M29.9489208,36.5589736 C30.3021283,36.8850113 30.7277887,37.165766 31.2259019,37.3921811 C31.6520151,37.165766 32.0233358,36.8850113 32.3131472,36.5589736 L29.9489208,36.5589736 Z M29.1247698,34.5298415 C29.1786566,34.312483 29.2239396,34.0770113 29.260166,33.8415396 L30.0576,33.9321057 C30.0213736,34.1404075 29.9760906,34.3305962 29.9489208,34.5298415 L33.7173736,34.5298415 L33.7173736,33.6785208 L27.5303547,33.6785208 L27.5303547,34.5298415 L29.1247698,34.5298415 Z M33.4819019,36.1333132 C33.1282415,36.7853887 32.6301283,37.3020679 32.0323925,37.7186717 C32.775034,37.9722566 33.6177509,38.1352755 34.5052981,38.2258415 C34.3513358,38.4069736 34.1611472,38.7420679 34.0705811,38.968483 C33.0286189,38.832634 32.0686189,38.5699925 31.2259019,38.1896151 C30.4832604,38.5518792 29.6500528,38.7964075 28.7982792,38.9594264 C28.7258264,38.7601811 28.5446943,38.4250868 28.4179019,38.2620679 C29.1157132,38.1533887 29.8040151,37.9994264 30.4108075,37.7548981 C29.9489208,37.464634 29.5232604,37.1114264 29.1696,36.7038792 C28.6533736,37.6729358 27.9560151,38.4250868 27.0050717,38.9865962 C26.9231094,38.8235774 26.6423547,38.4975396 26.4883925,38.3435774 C27.7205434,37.6910491 28.4903547,36.6585962 28.9431849,35.2276528 L27.5212981,35.2276528 L27.5212981,34.5388981 L26.8325434,34.5388981 L26.8325434,32.9630491 L28.3635623,32.9630491 C28.2820528,32.7090113 28.1824302,32.4282566 28.0828075,32.2018415 L28.6352604,31.9573132 C28.164317,31.9754264 27.6933736,31.984483 27.2405434,31.9935396 C27.2314868,31.7852377 27.1404679,31.5135396 27.0684679,31.3324075 C29.3149585,31.2776151 32.0323925,31.1150491 33.6720906,30.8610113 L33.9166189,31.5493132 C32.5486189,31.7580679 30.5647698,31.893917 28.6986566,31.9573132 C28.8526189,32.2652377 29.0246943,32.6727849 29.1066566,32.9630491 L30.4017509,32.9630491 C30.3292981,32.6818415 30.2206189,32.3558038 30.1209962,32.1022189 L30.7640151,31.8758038 C30.8998642,32.2108981 31.0538264,32.6546717 31.1448453,32.9630491 L32.0052226,32.9630491 C32.2316377,32.6003321 32.4942792,32.1112755 32.6301283,31.7490113 L33.3822792,31.984483 C33.183034,32.3105208 32.9742792,32.6727849 32.7659774,32.9630491 L34.4419019,32.9630491 L34.4419019,34.5388981 L33.7445434,34.5388981 L33.7445434,35.2276528 L29.7587321,35.2276528 C29.6953358,35.4450113 29.6319396,35.6438038 29.5504302,35.8435019 L32.8837132,35.8435019 L33.0195623,35.8072755 L33.4819019,36.1333132 Z" id="Fill-8" fill="#333333"></path>
                            <mask id="mask-2" fill="white">
                                <use xlink:href="#path-1"></use>
                            </mask>
                            <g id="Clip-11"></g>
                            <path d="M39.8839245,36.0697358 L41.5326792,36.0697358 L41.5326792,34.2398491 L39.8839245,34.2398491 L39.8839245,36.0697358 Z M44.4855849,37.9720755 C44.4855849,38.4706415 44.3769057,38.7151698 44.0599245,38.850566 C43.752,38.9868679 43.2538868,39.0049811 42.5017358,38.9959245 C42.4655094,38.7695094 42.338717,38.3886792 42.2209811,38.1713208 C42.7281509,38.189434 43.2901132,38.189434 43.434566,38.1803774 C43.5889811,38.1713208 43.6428679,38.1260377 43.6428679,37.9630189 L43.6428679,32.0024151 L39.4310943,32.0024151 L39.4310943,31.2235472 L44.4855849,31.2235472 L44.4855849,37.9720755 Z M39.8839245,36.8304906 L39.8839245,37.3833962 L39.122717,37.3833962 L39.122717,33.4790943 L42.3568302,33.4790943 L42.3568302,36.8304906 L39.8839245,36.8304906 Z M37.728,30.8431698 C38.1808302,31.2869434 38.8057358,31.9209057 39.1136604,32.3017358 L38.4615849,32.7636226 C38.1808302,32.3741887 37.5740377,31.7216604 37.1302642,31.2416604 L37.728,30.8431698 Z M37.0392453,39.0593208 L37.8724528,39.0593208 L37.8724528,32.8179623 L37.0392453,32.8179623 L37.0392453,39.0593208 Z" id="Fill-10" fill="#333333" mask="url(#mask-2)"></path>
                            <path d="M48.3433811,34.9012981 C48.3433811,33.0623547 49.1041358,31.6128453 50.1370415,30.5713358 L50.8253434,30.8973736 C49.8381736,31.9298264 49.1584755,33.2344302 49.1584755,34.9012981 C49.1584755,36.568166 49.8381736,37.8727698 50.8253434,38.9052226 L50.1370415,39.2312604 C49.1041358,38.1897509 48.3433811,36.7402415 48.3433811,34.9012981" id="Fill-12" fill="#333333" mask="url(#mask-2)"></path>
                            <polygon id="Fill-13" fill="#333333" mask="url(#mask-2)" points="60.5520906 37.7728302 60.5520906 38.6150943 52.4717887 38.6150943 52.4717887 37.7728302 55.7783547 37.7728302 55.7783547 30.8703396 56.6749585 30.8703396 56.6749585 33.5606038 59.9724679 33.5606038 59.9724679 34.4033208 56.6749585 34.4033208 56.6749585 37.7728302"></polygon>
                            <path d="M67.7515925,33.950083 C68.0776302,34.2127245 68.4398943,34.5659321 68.6119698,34.8104604 L68.2949887,35.0368755 L69.3912906,35.0368755 C69.4094038,34.7112906 69.427517,34.339517 69.4456302,33.950083 L67.7515925,33.950083 Z M69.2459321,37.0030642 C69.2821585,36.686083 69.3183849,36.2871396 69.3460075,35.8071396 L67.5156679,35.8071396 C67.8783849,36.0878943 68.2859321,36.4773283 68.4851774,36.758083 L68.1319698,37.0030642 L69.2459321,37.0030642 Z M66.5828377,33.950083 C66.5556679,34.3032906 66.5013283,34.6750642 66.4560453,35.0368755 L68.0685736,35.0368755 C67.8602717,34.7651774 67.5066113,34.4214792 67.2077434,34.1764981 L67.5523472,33.950083 L66.5828377,33.950083 Z M66.3564226,35.8071396 C66.2930264,36.2328 66.2386868,36.6403472 66.1752906,37.0030642 L67.9146113,37.0030642 C67.6972528,36.7132528 67.3078189,36.323366 66.9813283,36.0516679 L67.3712151,35.8071396 L66.3564226,35.8071396 Z M70.1158189,35.8071396 C70.0886491,36.278083 70.0614792,36.667517 70.0252528,37.0030642 L70.6139321,37.0030642 L70.6139321,37.7275925 L69.9256302,37.7275925 C69.8531774,38.1985358 69.7626113,38.470234 69.6448755,38.606083 C69.4637434,38.8596679 69.2549887,38.9321208 68.974234,38.9688 C68.7206491,39.0050264 68.2768755,38.9959698 67.8421585,38.9688 C67.8240453,38.7695547 67.7515925,38.4611774 67.6248,38.2619321 C68.059517,38.3072151 68.4489509,38.3072151 68.6210264,38.3072151 C68.7840453,38.3072151 68.8655547,38.2891019 68.9561208,38.171366 C69.019517,38.0989132 69.0829132,37.9540075 69.1286491,37.7275925 L65.251517,37.7275925 C65.3511396,37.2023094 65.4684226,36.5226113 65.5684981,35.8071396 L64.7529509,35.8071396 L64.7529509,35.0368755 L65.6771774,35.0368755 C65.7586868,34.4029132 65.822083,33.7689509 65.8764226,33.2255547 L70.2516679,33.2255547 C70.2516679,33.2255547 70.2426113,33.4881962 70.2335547,33.5968755 C70.2154415,34.1312151 70.1882717,34.6112151 70.1701585,35.0368755 L70.8584604,35.0368755 L70.8584604,35.8071396 L70.1158189,35.8071396 Z M66.2749132,32.4643472 C65.9941585,33.0258566 65.6771774,33.5425358 65.3511396,33.9319698 C65.1876679,33.7961208 64.8168,33.5697057 64.6261585,33.4610264 C65.2329509,32.8084981 65.7858566,31.7669887 66.1028377,30.734083 L66.9183849,30.9428377 C66.827366,31.1964226 66.7277434,31.4590642 66.619517,31.7126491 L70.6229887,31.7126491 L70.6229887,32.4643472 L66.2749132,32.4643472 Z M64.5813283,32.4281208 C64.2457811,32.1292528 63.5574792,31.7126491 63.0231396,31.4500075 L63.494083,30.8703849 C64.0284226,31.1058566 64.7257811,31.4952906 65.0794415,31.7851019 L64.5813283,32.4281208 Z M62.7967245,38.4611774 C63.1494792,37.7457057 63.6661585,36.5769509 64.0284226,35.5444981 L64.6895547,36.0063849 C64.3454038,36.9577811 63.9106868,38.0536302 63.5212528,38.9049509 L62.7967245,38.4611774 Z M64.0012528,34.9920453 C63.6933283,34.702234 63.0412528,34.2851774 62.5431396,34.0315925 L63.0050264,33.4610264 C63.5031396,33.6964981 64.1642717,34.0678189 64.4812528,34.3485736 L64.0012528,34.9920453 Z" id="Fill-14" fill="#333333" mask="url(#mask-2)"></path>
                            <path d="M74.8423245,34.9012981 C74.8423245,36.7402415 74.0815698,38.1897509 73.0486642,39.2312604 L72.3603623,38.9052226 C73.3475321,37.8727698 74.0272302,36.568166 74.0272302,34.9012981 C74.0272302,33.2344302 73.3475321,31.9298264 72.3603623,30.8973736 L73.0486642,30.5713358 C74.0815698,31.6128453 74.8423245,33.0623547 74.8423245,34.9012981" id="Fill-15" fill="#333333" mask="url(#mask-2)"></path>
                            <path d="M86.4087396,31.4409509 L86.4087396,32.0477434 L84.9501736,32.0477434 C85.1403623,32.2922717 85.3214943,32.5458566 85.4120604,32.7360453 L84.7147019,33.0444226 C84.6060226,32.7813283 84.3343245,32.3832906 84.071683,32.0477434 L83.5550038,32.0477434 C83.3919849,32.3284981 83.2199094,32.5825358 83.0297208,32.7903849 C82.8848151,32.6821585 82.5316075,32.491517 82.3414189,32.4100075 C82.748966,32.0024604 83.0568906,31.3503849 83.2294189,30.7069132 L84.0445132,30.8522717 C83.9901736,31.051517 83.9177208,31.2417057 83.8362113,31.4409509 L86.4087396,31.4409509 Z M80.6202113,38.1441962 L84.7418717,38.1441962 L84.7418717,37.4373283 L80.6202113,37.4373283 L80.6202113,38.1441962 Z M80.6202113,35.6441208 L84.2799849,35.6441208 L84.2799849,35.0101585 L80.6202113,35.0101585 L80.6202113,35.6441208 Z M80.6202113,36.803366 L85.5755321,36.803366 L85.5755321,39.0503094 L84.7418717,39.0503094 L84.7418717,38.7872151 L80.6202113,38.7872151 L80.6202113,39.0679698 L79.7688906,39.0679698 L79.7688906,34.3757434 L85.0950792,34.3757434 L85.0950792,36.2690264 L80.6202113,36.2690264 L80.6202113,36.803366 Z M82.5587774,32.5549132 C82.703683,32.7632151 82.8395321,33.0258566 82.9210415,33.2436679 L86.2004377,33.2436679 L86.2004377,34.774234 L85.3486642,34.774234 L85.3486642,33.9048 L79.5510792,33.9048 L79.5510792,34.774234 L78.7450415,34.774234 L78.7450415,33.2436679 L82.0787774,33.2436679 C81.9972679,33.0625358 81.9067019,32.8723472 81.815683,32.7088755 L82.5587774,32.5549132 Z M79.7326642,32.0477434 C79.5148528,32.4552906 79.2522113,32.8180075 78.9986264,33.0987623 C78.8356075,32.9986868 78.4824,32.8089509 78.2740981,32.7360453 C78.7722113,32.2379321 79.1802113,31.4681208 79.415683,30.6978566 L80.239834,30.8522717 C80.1764377,31.051517 80.1039849,31.2417057 80.0134189,31.4409509 L82.3142491,31.4409509 L82.3142491,32.0477434 L81.0549283,32.0477434 C81.2270038,32.3013283 81.3719094,32.5730264 81.4448151,32.7722717 L80.7288906,33.0258566 C80.6473811,32.7632151 80.4390792,32.374234 80.2307774,32.0477434 L79.7326642,32.0477434 Z" id="Fill-16" fill="#333333" mask="url(#mask-2)"></path>
                            <path d="M94.3960755,34.5115472 L95.5557736,34.5115472 L95.5557736,33.5153208 L94.3960755,33.5153208 L94.3960755,34.5115472 Z M94.3960755,32.8451321 L95.5557736,32.8451321 L95.5557736,31.866566 L94.3960755,31.866566 L94.3960755,32.8451321 Z M92.4937358,34.5115472 L93.6806038,34.5115472 L93.6806038,33.5153208 L92.4937358,33.5153208 L92.4937358,34.5115472 Z M92.4937358,32.8451321 L93.6806038,32.8451321 L93.6806038,31.866566 L92.4937358,31.866566 L92.4937358,32.8451321 Z M96.7693585,37.9992453 L96.7693585,38.7695094 L90.9808302,38.7695094 L90.9808302,37.9992453 L93.6081509,37.9992453 L93.6081509,36.9215094 L91.6424151,36.9215094 L91.6424151,36.1603019 L93.6081509,36.1603019 L93.6081509,35.2274717 L91.7239245,35.2274717 L91.7239245,31.1510943 L96.3618113,31.1510943 L96.3618113,35.2274717 L94.4685283,35.2274717 L94.4685283,36.1603019 L96.4795472,36.1603019 L96.4795472,36.9215094 L94.4685283,36.9215094 L94.4685283,37.9992453 L96.7693585,37.9992453 Z M91.4155472,37.2113208 C90.4283774,37.5554717 89.3773585,37.9086792 88.5622642,38.1713208 L88.3630189,37.3109434 C88.6890566,37.2203774 89.0875472,37.1116981 89.522717,36.9758491 L89.522717,34.6750189 L88.5441509,34.6750189 L88.5441509,33.8956981 L89.522717,33.8956981 L89.522717,32.093434 L88.4535849,32.093434 L88.4535849,31.3141132 L91.3344906,31.3141132 L91.3344906,32.093434 L90.3287547,32.093434 L90.3287547,33.8956981 L91.1891321,33.8956981 L91.1891321,34.6750189 L90.3287547,34.6750189 L90.3287547,36.7222642 C90.6366792,36.6226415 90.962717,36.522566 91.2710943,36.4143396 L91.4155472,37.2113208 Z" id="Fill-17" fill="#333333" mask="url(#mask-2)"></path>
                            <path d="M104.313011,32.4012226 C104.285842,32.6004679 104.249615,32.7725434 104.204332,32.9536755 C104.575653,34.0228075 105.354521,34.6658264 106.767804,34.8831849 C106.595728,35.0552604 106.387426,35.3722415 106.287804,35.5986566 C105.073766,35.3360151 104.331125,34.7835623 103.869238,33.8955623 C103.452634,34.674883 102.718596,35.2726189 101.34154,35.6529962 C101.26003,35.4537509 101.042672,35.1186566 100.879653,34.9556377 C102.772936,34.4846943 103.252936,33.6148075 103.452634,32.4012226 L102.510294,32.4012226 C102.274823,32.8449962 102.003125,33.2344302 101.731426,33.5518642 C101.567955,33.4155623 101.206143,33.1982038 100.997389,33.0985811 C101.586521,32.5280151 102.048408,31.6309585 102.301992,30.7071849 L103.117087,30.888317 C103.044634,31.1419019 102.954521,31.4045434 102.854445,31.6490717 L105.907426,31.6490717 L106.034219,31.6219019 L106.613842,31.7853736 C106.40554,32.4193358 106.133842,33.1438642 105.88886,33.6057509 L105.200558,33.3974491 C105.327351,33.1257509 105.472709,32.7634868 105.580936,32.4012226 L104.313011,32.4012226 Z M100.734747,37.962883 L104.811125,37.962883 L104.811125,36.5405434 L100.734747,36.5405434 L100.734747,37.962883 Z M99.8653132,35.7797887 L105.717238,35.7797887 L105.717238,39.0863547 L104.811125,39.0863547 L104.811125,38.715034 L100.734747,38.715034 L100.734747,39.1135245 L99.8653132,39.1135245 L99.8653132,35.7797887 Z M100.653238,32.5099019 C100.290974,32.2200906 99.5573887,31.848317 98.9773132,31.6219019 L99.3943698,31.024166 C99.9649358,31.2234113 100.716634,31.5675623 101.097011,31.8392604 L100.653238,32.5099019 Z M101.350596,34.0137509 C100.517389,34.3941283 99.6388981,34.8016755 98.9320302,35.1005434 L98.6059925,34.2854491 C99.2399547,34.0771472 100.245691,33.6872604 101.2152,33.3249962 L101.350596,34.0137509 Z" id="Fill-18" fill="#333333" mask="url(#mask-2)"></path>
                            <path d="M112.906868,36.5678491 L114.274868,36.5678491 L114.274868,35.7618113 L112.906868,35.7618113 L112.906868,36.5678491 Z M112.907321,35.1006792 L114.275321,35.1006792 L114.275321,34.2946415 L112.907321,34.2946415 L112.907321,35.1006792 Z M116.829736,32.0658113 C116.829736,32.0658113 116.829736,32.3651321 116.820679,32.4824151 C116.693887,36.6679245 116.576151,38.1169811 116.222943,38.5607547 C116.014189,38.8596226 115.79683,38.9506415 115.470792,38.9959245 C115.171925,39.0321509 114.673811,39.0230943 114.184755,39.0049811 C114.166642,38.7695094 114.057509,38.4249057 113.922113,38.189434 C114.447396,38.234717 114.900226,38.234717 115.117585,38.234717 C115.280604,38.234717 115.380226,38.1984906 115.479849,38.0807547 C115.742491,37.7728302 115.87834,36.386717 115.987472,32.8270189 L112.834868,32.8270189 C112.671849,33.1077736 112.499774,33.3794717 112.327698,33.6149434 L115.017962,33.6149434 L115.017962,37.2475472 L112.907321,37.2475472 L112.907321,37.7728302 L112.146566,37.7728302 L112.146566,33.8413585 C112.037434,33.9862642 111.929208,34.1130566 111.829132,34.2217358 C111.666113,34.0768302 111.312906,33.7870189 111.104604,33.6602264 C111.838642,32.9719245 112.472604,31.8575094 112.834868,30.7526038 L113.695245,30.9699623 C113.568453,31.3503396 113.414491,31.7126038 113.233358,32.0658113 L116.829736,32.0658113 Z M110.515925,32.8360755 C110.271396,32.4461887 109.718491,31.8393962 109.283774,31.4046792 L109.854792,30.9337358 C110.298566,31.341283 110.869132,31.9027925 111.131774,32.2831698 L110.515925,32.8360755 Z M111.575547,36.4596226 C111.639396,36.6860377 111.774792,37.0120755 111.865811,37.1660377 C110.289509,38.3796226 110.035925,38.5969811 109.891019,38.7871698 C109.818566,38.5879245 109.610264,38.234717 109.464906,38.0716981 C109.646038,37.9449057 109.909132,37.6641509 109.909132,37.2475472 L109.909132,34.3394717 L108.731321,34.3394717 L108.731321,33.533434 L110.724226,33.533434 L110.724226,37.0845283 L111.575547,36.4596226 Z" id="Fill-19" fill="#333333" mask="url(#mask-2)"></path>
                            <path d="M121.555925,36.5859623 L125.097962,36.5859623 L125.097962,35.7980377 L121.555925,35.7980377 L121.555925,36.5859623 Z M121.555925,35.0911698 L125.097962,35.0911698 L125.097962,34.3032453 L121.555925,34.3032453 L121.555925,35.0911698 Z M122.126943,32.664 C121.982038,32.9719245 121.819019,33.2798491 121.656,33.5696604 L125.922566,33.5696604 L125.922566,38.0807547 C125.922566,38.5335849 125.832,38.7871698 125.505962,38.9144151 C125.188528,39.0502642 124.681358,39.0502642 123.92966,39.0502642 C123.902491,38.8233962 123.775698,38.4615849 123.667019,38.234717 C124.201358,38.2618868 124.744755,38.2618868 124.898717,38.2528302 C125.052679,38.2528302 125.097962,38.2075472 125.097962,38.0716981 L125.097962,37.2928302 L121.555925,37.2928302 L121.555925,39.0593208 L120.722717,39.0593208 L120.722717,34.9104906 C120.324226,35.381434 119.871396,35.8070943 119.364226,36.1603019 C119.236981,35.9791698 118.983396,35.6621887 118.811321,35.5082264 C119.83517,34.8199245 120.623094,33.7779623 121.194113,32.664 L119.055849,32.664 L119.055849,31.8756226 L121.537811,31.8756226 C121.692226,31.4952453 121.819019,31.1148679 121.918642,30.7435472 L122.779019,30.9427925 C122.679396,31.250717 122.579774,31.5676981 122.462038,31.8756226 L126.964075,31.8756226 L126.964075,32.664 L122.126943,32.664 Z" id="Fill-20" fill="#333333" mask="url(#mask-2)"></path>
                            <path d="M133.429585,34.4123774 L135.802868,34.4123774 L135.802868,33.4700377 L133.429585,33.4700377 L133.429585,34.4123774 Z M133.429585,32.7817358 L135.802868,32.7817358 L135.802868,31.866566 L133.429585,31.866566 L133.429585,32.7817358 Z M137.152755,35.9429434 C136.718038,36.2961509 136.174642,36.6588679 135.721358,36.930566 C136.138415,37.5283019 136.672755,37.9992453 137.342943,38.28 C137.161811,38.4434717 136.890113,38.778566 136.781434,38.9959245 C135.395774,38.2981132 134.607396,36.9215094 134.163623,35.1459623 L133.429585,35.1459623 L133.429585,37.9267925 L134.879094,37.5916981 C134.879094,37.8271698 134.888151,38.1622642 134.924377,38.3524528 C133.112604,38.8324528 132.804679,38.9415849 132.614491,39.0679245 C132.551094,38.8777358 132.369962,38.5426415 132.24317,38.3886792 C132.397132,38.2981132 132.614491,38.0807547 132.614491,37.6913208 L132.614491,31.1329811 L136.618415,31.1329811 L136.618415,35.1459623 L134.897208,35.1459623 C135.024,35.562566 135.168906,35.9610566 135.359094,36.341434 C135.784755,36.042566 136.283321,35.6621887 136.591245,35.3542642 L137.152755,35.9429434 Z M132.24317,31.3956226 C131.989585,32.1382642 131.681208,33.0262642 131.400453,33.7236226 C131.998642,34.4662642 132.134491,35.1006792 132.134491,35.6531321 C132.134491,36.1784151 132.025811,36.5587925 131.76317,36.7580377 C131.627321,36.8581132 131.472906,36.9124528 131.27366,36.9396226 C131.110642,36.9577358 130.884226,36.9577358 130.684981,36.9577358 C130.684981,36.7489811 130.612528,36.4324528 130.485736,36.2236981 C130.675925,36.2327547 130.82083,36.2418113 130.956679,36.2327547 C131.056302,36.2327547 131.146868,36.2055849 131.219321,36.1603019 C131.346566,36.0606792 131.391396,35.8342642 131.391396,35.562566 C131.391396,35.1006792 131.246491,34.5024906 130.666868,33.8232453 C130.884226,33.2255094 131.119698,32.4643019 131.282717,31.866566 L130.168755,31.866566 L130.168755,39.0321509 L129.434717,39.0321509 L129.434717,31.1148679 L131.572981,31.1148679 L131.690264,31.0786415 L132.24317,31.3956226 Z" id="Fill-21" fill="#333333" mask="url(#mask-2)"></path>
                            <path d="M144.859426,30.9156226 C145.429992,32.093434 146.544408,33.4790943 147.459125,34.2398491 C147.241766,34.4123774 146.924785,34.7379623 146.761766,34.9648302 C145.837992,34.0677736 144.714521,32.5824906 144.026219,31.250717 L144.859426,30.9156226 Z M145.013389,35.5082264 C145.783653,36.477283 146.6712,37.7456604 147.114974,38.5698113 L146.281766,39.0321509 C146.13686,38.7423396 145.937162,38.3796226 145.692634,38.0083019 C141.136257,38.3524528 140.59286,38.3796226 140.212483,38.5335849 C140.158143,38.3524528 140.004181,37.890566 139.877389,37.6369811 C140.14003,37.5735849 140.375502,37.32 140.710596,36.9124528 C141.07286,36.5135094 142.169162,34.946717 142.866521,33.4519245 L143.781691,33.8413585 C143.083879,35.1640755 142.223502,36.450566 141.362672,37.4558491 L145.176408,37.229434 C144.859426,36.7580377 144.524332,36.2780377 144.207351,35.8704906 L145.013389,35.5082264 Z M142.513313,31.2326038 C141.924634,32.6997736 140.964181,34.0858868 139.995125,34.9648302 C139.831653,34.7927547 139.433615,34.5024906 139.215804,34.3580377 C140.203426,33.578717 141.090974,32.3017358 141.598143,30.9880755 L142.513313,31.2326038 Z" id="Fill-22" fill="#333333" mask="url(#mask-2)"></path>
                            <path d="M151.116679,36.7132075 L153.743547,36.7132075 L153.743547,35.2365283 L151.116679,35.2365283 L151.116679,36.7132075 Z M151.116679,37.4467925 L151.116679,38.1079245 L150.301132,38.1079245 L150.301132,34.5115472 L154.567698,34.5115472 L154.567698,37.4467925 L151.116679,37.4467925 Z M149.776302,33.669283 L155.12966,33.669283 L155.12966,32.9266415 L149.776302,32.9266415 L149.776302,33.669283 Z M156.968604,37.8996226 C156.968604,38.4339623 156.859925,38.7151698 156.52483,38.850566 C156.180226,39.0049811 155.618717,39.0230943 154.812679,39.0140377 C154.776453,38.7695094 154.640604,38.3433962 154.522868,38.0988679 C155.102491,38.1260377 155.709283,38.1260377 155.881358,38.1169811 C156.053434,38.1079245 156.107774,38.0626415 156.107774,37.890566 L156.107774,32.1110943 L149.703396,32.1110943 L149.703396,31.3050566 L156.968604,31.3050566 L156.968604,37.8996226 Z" id="Fill-23" fill="#333333" mask="url(#mask-2)"></path>
                            <polygon id="Fill-24" fill="#333333" mask="url(#mask-2)" points="27.7580377 46.7687547 28.2674717 46.7687547 28.2674717 43.8588679 27.7580377 43.8588679"></polygon>
                            <path d="M29.9792151,45.6115925 L30.8676679,45.6115925 L30.4315925,44.3599698 L30.419366,44.3599698 L29.9792151,45.6115925 Z M30.1585358,43.8591396 L30.7005736,43.8591396 L31.8213283,46.7690264 L31.2752151,46.7690264 L31.0021585,45.9983094 L29.8406491,45.9983094 L29.5675925,46.7690264 L29.0418566,46.7690264 L30.1585358,43.8591396 Z" id="Fill-25" fill="#333333" mask="url(#mask-2)"></path>
                            <path d="M32.9217057,45.7990642 C32.9217057,45.9104604 32.9407245,46.0055547 32.9787623,46.0843472 C33.0168,46.1631396 33.0697811,46.2274415 33.1377057,46.2777057 C33.2056302,46.3279698 33.2839698,46.3646491 33.3722717,46.3877434 C33.4601208,46.4112906 33.5561208,46.4226113 33.659366,46.4226113 C33.7707623,46.4226113 33.8658566,46.4099321 33.9446491,46.3836679 C34.0234415,46.3578566 34.0872906,46.3243472 34.1361962,46.2835925 C34.1851019,46.2428377 34.2204226,46.1961962 34.2421585,46.1432151 C34.2638943,46.0906868 34.2747623,46.0363472 34.2747623,45.9820075 C34.2747623,45.8706113 34.2498566,45.7891019 34.1995925,45.7356679 C34.1488755,45.6826868 34.094083,45.6455547 34.0343094,45.623366 C33.9310642,45.5853283 33.8106113,45.5495547 33.6738566,45.5155925 C33.5361962,45.4816302 33.3672906,45.4377057 33.166234,45.383366 C33.0412528,45.3507623 32.9375547,45.3077434 32.8546868,45.2547623 C32.771366,45.2017811 32.7057057,45.1429132 32.6568,45.0772528 C32.6078943,45.0124981 32.5730264,44.9427623 32.5531019,44.8694038 C32.5327245,44.7960453 32.5223094,44.7217811 32.5223094,44.6452528 C32.5223094,44.4989887 32.5531019,44.3721962 32.614234,44.2644226 C32.675366,44.1571019 32.7559698,44.0683472 32.8564981,43.9972528 C32.9570264,43.9266113 33.0711396,43.8745358 33.1988377,43.8405736 C33.3265358,43.8070642 33.4555925,43.7898566 33.5860075,43.7898566 C33.7381585,43.7898566 33.8817057,43.8093283 34.0161962,43.8487245 C34.1506868,43.8881208 34.2688755,43.9474415 34.3707623,44.026234 C34.4726491,44.1050264 34.5532528,44.2023849 34.6130264,44.3178566 C34.6728,44.4328755 34.7026868,44.5664604 34.7026868,44.7186113 L34.1932528,44.7186113 C34.1796679,44.5311396 34.1158189,44.3989132 34.0017057,44.3214792 C33.8875925,44.2440453 33.742234,44.2051019 33.5656302,44.2051019 C33.5058566,44.2051019 33.4447245,44.2114415 33.382234,44.2236679 C33.3197434,44.2358943 33.2626868,44.2562717 33.2110642,44.2848 C33.1594415,44.3133283 33.1168755,44.3522717 33.0824604,44.4011774 C33.0489509,44.450083 33.0317434,44.5107623 33.0317434,44.5841208 C33.0317434,44.6878189 33.0634415,44.7688755 33.1277434,44.8272906 C33.1915925,44.8852528 33.2749132,44.9296302 33.3781585,44.959517 C33.3890264,44.9617811 33.4315925,44.9735547 33.5067623,44.9939321 C33.5814792,45.0147623 33.6648,45.0364981 33.7571774,45.0609509 C33.8495547,45.0858566 33.9401208,45.1098566 34.0284226,45.1324981 C34.1167245,45.1555925 34.1796679,45.1723472 34.2177057,45.1836679 C34.3128,45.2135547 34.3956679,45.2543094 34.4663094,45.3054792 C34.5369509,45.3571019 34.5962717,45.4164226 34.6438189,45.4829887 C34.691366,45.5495547 34.726234,45.6206491 34.7497811,45.6967245 C34.7724226,45.7728 34.7841962,45.8488755 34.7841962,45.9249509 C34.7841962,46.0884226 34.7511396,46.2274415 34.6845736,46.3429132 C34.6180075,46.4583849 34.5301585,46.5530264 34.4214792,46.6259321 C34.3128,46.6992906 34.1891774,46.7531774 34.0506113,46.7871396 C33.9120453,46.8211019 33.7707623,46.8383094 33.6267623,46.8383094 C33.4610264,46.8383094 33.3048,46.8179321 33.158083,46.7767245 C33.011366,46.7359698 32.8836679,46.6739321 32.7749887,46.5892528 C32.6663094,46.5054792 32.579366,46.3972528 32.5141585,46.2654792 C32.4489509,46.1337057 32.4149887,45.9783849 32.4122717,45.7990642 L32.9217057,45.7990642 Z" id="Fill-26" fill="#333333" mask="url(#mask-2)"></path>
                            <polygon id="Fill-27" fill="#333333" mask="url(#mask-2)" points="35.7176151 43.8590943 36.2270491 43.8590943 36.2270491 45.1836226 37.5230491 43.8590943 38.1506717 43.8590943 36.9891623 45.0201509 38.2321811 46.7689811 37.5964075 46.7689811 36.6427472 45.3787925 36.2270491 45.7908679 36.2270491 46.7689811 35.7176151 46.7689811"></polygon>
                            <path d="M41.096966,47.5471698 C41.0154566,47.4167547 40.9384755,47.2822642 40.8669283,47.1436981 C40.7949283,47.0055849 40.7324377,46.8588679 40.6794566,46.7058113 C40.6260226,46.5523019 40.5848151,46.3897358 40.5549283,46.218566 C40.5250415,46.0473962 40.5100981,45.864 40.5100981,45.6688302 C40.5100981,45.3396226 40.5612679,45.0163019 40.6631547,44.6984151 C40.7650415,44.3805283 40.9094943,44.0775849 41.096966,43.7895849 L41.4759849,43.7895849 C41.312966,44.0834717 41.1888906,44.3841509 41.1033057,44.6920755 C41.0177208,45.0009057 40.9747019,45.3264906 40.9747019,45.6688302 C40.9747019,46.010717 41.0154566,46.3367547 41.096966,46.6469434 C41.1784755,46.9562264 41.3048151,47.2564528 41.4759849,47.5471698 L41.096966,47.5471698 Z" id="Fill-28" fill="#333333" mask="url(#mask-2)"></path>
                            <path d="M44.1984453,45.7990642 C44.1984453,45.9104604 44.2174642,46.0055547 44.2555019,46.0843472 C44.2935396,46.1631396 44.3465208,46.2274415 44.4144453,46.2777057 C44.4823698,46.3279698 44.5607094,46.3646491 44.6490113,46.3877434 C44.7368604,46.4112906 44.8328604,46.4226113 44.9361057,46.4226113 C45.0475019,46.4226113 45.1425962,46.4099321 45.2213887,46.3836679 C45.3001811,46.3578566 45.3640302,46.3243472 45.4129358,46.2835925 C45.4618415,46.2428377 45.4971623,46.1961962 45.5188981,46.1432151 C45.540634,46.0906868 45.5515019,46.0363472 45.5515019,45.9820075 C45.5515019,45.8706113 45.5265962,45.7891019 45.4763321,45.7356679 C45.4256151,45.6826868 45.3708226,45.6455547 45.3110491,45.623366 C45.2078038,45.5853283 45.0873509,45.5495547 44.9505962,45.5155925 C44.8129358,45.4816302 44.6440302,45.4377057 44.4429736,45.383366 C44.3179925,45.3507623 44.2142943,45.3077434 44.1314264,45.2547623 C44.0481057,45.2017811 43.9824453,45.1429132 43.9335396,45.0772528 C43.884634,45.0124981 43.849766,44.9427623 43.8298415,44.8694038 C43.8094642,44.7960453 43.7990491,44.7217811 43.7990491,44.6452528 C43.7990491,44.4989887 43.8298415,44.3721962 43.8909736,44.2644226 C43.9521057,44.1571019 44.0327094,44.0683472 44.1332377,43.9972528 C44.233766,43.9266113 44.3478792,43.8745358 44.4755774,43.8405736 C44.6032755,43.8070642 44.7323321,43.7898566 44.8627472,43.7898566 C45.0148981,43.7898566 45.1584453,43.8093283 45.2929358,43.8487245 C45.4274264,43.8881208 45.5456151,43.9474415 45.6475019,44.026234 C45.7493887,44.1050264 45.8299925,44.2023849 45.889766,44.3178566 C45.9495396,44.4328755 45.9794264,44.5664604 45.9794264,44.7186113 L45.4699925,44.7186113 C45.4564075,44.5311396 45.3925585,44.3989132 45.2784453,44.3214792 C45.1643321,44.2440453 45.0189736,44.2051019 44.8423698,44.2051019 C44.7825962,44.2051019 44.7214642,44.2114415 44.6589736,44.2236679 C44.596483,44.2358943 44.5394264,44.2562717 44.4878038,44.2848 C44.4361811,44.3133283 44.3936151,44.3522717 44.3592,44.4011774 C44.3256906,44.450083 44.308483,44.5107623 44.308483,44.5841208 C44.308483,44.6878189 44.3401811,44.7688755 44.404483,44.8272906 C44.4683321,44.8852528 44.5516528,44.9296302 44.6548981,44.959517 C44.665766,44.9617811 44.7083321,44.9735547 44.7835019,44.9939321 C44.8582189,45.0147623 44.9415396,45.0364981 45.033917,45.0609509 C45.1262943,45.0858566 45.2168604,45.1098566 45.3051623,45.1324981 C45.3934642,45.1555925 45.4564075,45.1723472 45.4944453,45.1836679 C45.5895396,45.2135547 45.6724075,45.2543094 45.7430491,45.3054792 C45.8136906,45.3571019 45.8730113,45.4164226 45.9205585,45.4829887 C45.9681057,45.5495547 46.0029736,45.6206491 46.0265208,45.6967245 C46.0491623,45.7728 46.0609358,45.8488755 46.0609358,45.9249509 C46.0609358,46.0884226 46.0278792,46.2274415 45.9613132,46.3429132 C45.8947472,46.4583849 45.8068981,46.5530264 45.6982189,46.6259321 C45.5895396,46.6992906 45.465917,46.7531774 45.3273509,46.7871396 C45.1887849,46.8211019 45.0475019,46.8383094 44.9035019,46.8383094 C44.737766,46.8383094 44.5815396,46.8179321 44.4348226,46.7767245 C44.2881057,46.7359698 44.1604075,46.6739321 44.0517283,46.5892528 C43.9430491,46.5054792 43.8561057,46.3972528 43.7908981,46.2654792 C43.7256906,46.1337057 43.6917283,45.9783849 43.6890113,45.7990642 L44.1984453,45.7990642 Z" id="Fill-29" fill="#333333" mask="url(#mask-2)"></path>
                            <polygon id="Fill-30" fill="#333333" mask="url(#mask-2)" points="46.9822189 43.8590943 47.4916528 43.8590943 47.4916528 45.0165283 48.8161811 45.0165283 48.8161811 43.8590943 49.3256151 43.8590943 49.3256151 46.7689811 48.8161811 46.7689811 48.8161811 45.4562264 47.4916528 45.4562264 47.4916528 46.7689811 46.9822189 46.7689811"></polygon>
                            <path d="M51.0249509,45.6115925 L51.9134038,45.6115925 L51.4773283,44.3599698 L51.4651019,44.3599698 L51.0249509,45.6115925 Z M51.2042717,43.8591396 L51.7463094,43.8591396 L52.8670642,46.7690264 L52.3209509,46.7690264 L52.0478943,45.9983094 L50.8863849,45.9983094 L50.6133283,46.7690264 L50.0875925,46.7690264 L51.2042717,43.8591396 Z" id="Fill-31" fill="#333333" mask="url(#mask-2)"></path>
                            <polygon id="Fill-32" fill="#333333" mask="url(#mask-2)" points="53.6128302 43.8590943 54.1507925 43.8590943 55.4793962 46.0023396 55.4875472 46.0023396 55.4875472 43.8590943 55.9725283 43.8590943 55.9725283 46.7689811 55.434566 46.7689811 54.1100377 44.6293585 54.0978113 44.6293585 54.0978113 46.7689811 53.6128302 46.7689811"></polygon>
                            <path d="M59.6037736,46.7688453 L59.2777358,46.7688453 L59.2003019,46.4265057 C59.0644528,46.5813736 58.9286038,46.6886943 58.7927547,46.7484679 C58.6569057,46.8082415 58.5006792,46.8381283 58.3240755,46.8381283 C58.106717,46.8381283 57.912,46.7978264 57.7390189,46.7181283 C57.5664906,46.6379774 57.4206792,46.5283925 57.3011321,46.3898264 C57.1815849,46.2512604 57.0896604,46.0896 57.0262642,45.9048453 C56.9624151,45.7200906 56.9302642,45.5231094 56.9302642,45.3139019 C56.9302642,45.1074113 56.9624151,44.9117887 57.0262642,44.727034 C57.0896604,44.5422792 57.1815849,44.3806189 57.3011321,44.2420528 C57.4206792,44.1034868 57.5664906,43.9934491 57.7390189,43.9119396 C57.912,43.8304302 58.106717,43.7896755 58.3240755,43.7896755 C58.4816604,43.7896755 58.632,43.8109585 58.7741887,43.8530717 C58.9168302,43.8947321 59.0440755,43.9576755 59.1554717,44.0405434 C59.2668679,44.1229585 59.3592453,44.2271094 59.4326038,44.3520906 C59.5059623,44.4770717 59.5521509,44.6210717 59.5711698,44.7840906 L59.0739623,44.7840906 C59.0603774,44.6889962 59.0309434,44.6056755 58.986566,44.5332226 C58.9417358,44.4612226 58.8851321,44.4009962 58.8172075,44.3520906 C58.749283,44.3031849 58.6732075,44.2665057 58.5889811,44.2420528 C58.5047547,44.2176 58.4164528,44.2053736 58.3240755,44.2053736 C58.1692075,44.2053736 58.0356226,44.2366189 57.9228679,44.2991094 C57.8101132,44.3620528 57.7181887,44.4449208 57.6475472,44.5499774 C57.5769057,44.6541283 57.5243774,44.7732226 57.4904151,44.9063547 C57.4564528,45.0394868 57.4396981,45.1753358 57.4396981,45.3139019 C57.4396981,45.4524679 57.4564528,45.5887698 57.4904151,45.7214491 C57.5243774,45.8545811 57.5769057,45.9732226 57.6475472,46.0782792 C57.7181887,46.1824302 57.8101132,46.2662038 57.9228679,46.3286943 C58.0356226,46.3911849 58.1692075,46.4224302 58.3240755,46.4224302 C58.4544906,46.4251472 58.5699623,46.4079396 58.6704906,46.3712604 C58.7710189,46.3345811 58.8561509,46.2820528 58.9249811,46.212317 C58.9942642,46.143034 59.0467925,46.0583547 59.0821132,45.9578264 C59.117434,45.8572981 59.1364528,45.7459019 59.1391698,45.6236377 L58.3648302,45.6236377 L58.3648302,45.2364679 L59.6037736,45.2364679 L59.6037736,46.7688453 Z" id="Fill-33" fill="#333333" mask="url(#mask-2)"></path>
                            <polygon id="Fill-34" fill="#333333" mask="url(#mask-2)" points="60.6350038 43.8590943 61.1444377 43.8590943 61.1444377 45.0165283 62.468966 45.0165283 62.468966 43.8590943 62.9784 43.8590943 62.9784 46.7689811 62.468966 46.7689811 62.468966 45.4562264 61.1444377 45.4562264 61.1444377 46.7689811 60.6350038 46.7689811"></polygon>
                            <path d="M64.6777358,45.6115925 L65.5661887,45.6115925 L65.1301132,44.3599698 L65.1178868,44.3599698 L64.6777358,45.6115925 Z M64.8570566,43.8591396 L65.3990943,43.8591396 L66.5198491,46.7690264 L65.9737358,46.7690264 L65.7006792,45.9983094 L64.5391698,45.9983094 L64.2661132,46.7690264 L63.7403774,46.7690264 L64.8570566,43.8591396 Z" id="Fill-35" fill="#333333" mask="url(#mask-2)"></path>
                            <polygon id="Fill-36" fill="#333333" mask="url(#mask-2)" points="67.2860377 46.7687547 67.7954717 46.7687547 67.7954717 43.8588679 67.2860377 43.8588679"></polygon>
                            <path d="M70.5667472,43.7896302 C70.6482566,43.9200453 70.7243321,44.0554415 70.7949736,44.195366 C70.8656151,44.3352906 70.9272,44.4815547 70.980634,44.6350642 C71.0331623,44.7890264 71.0757283,44.9511396 71.1065208,45.1223094 C71.137766,45.2934792 71.1536151,45.4773283 71.1536151,45.6724981 C71.1536151,46.0012528 71.1028981,46.3245736 71.0005585,46.6424604 C70.8986717,46.9603472 70.7542189,47.2619321 70.5667472,47.5472151 L70.1877283,47.5472151 C70.3507472,47.2564981 70.4748226,46.9567245 70.5604075,46.6483472 C70.6459925,46.3404226 70.6890113,46.0148377 70.6890113,45.6724981 C70.6890113,45.3301585 70.6482566,45.0041208 70.5667472,44.6943849 C70.4852377,44.3846491 70.3588981,44.0830642 70.1877283,43.7896302 L70.5667472,43.7896302 Z" id="Fill-37" fill="#333333" mask="url(#mask-2)"></path>
                            <polygon id="Fill-38" fill="#333333" mask="url(#mask-2)" points="73.7659925 43.8590943 74.4832755 43.8590943 75.2861434 46.137283 75.2942943 46.137283 76.0767849 43.8590943 76.785917 43.8590943 76.785917 46.7689811 76.3009358 46.7689811 76.3009358 44.5233962 76.2927849 44.5233962 75.4858415 46.7689811 75.0660679 46.7689811 74.2591245 44.5233962 74.2509736 44.5233962 74.2509736 46.7689811 73.7659925 46.7689811"></polygon>
                            <path d="M78.4852981,45.6115925 L79.3737509,45.6115925 L78.9376755,44.3599698 L78.9254491,44.3599698 L78.4852981,45.6115925 Z M78.6646189,43.8591396 L79.2066566,43.8591396 L80.3274113,46.7690264 L79.7812981,46.7690264 L79.5082415,45.9983094 L78.3467321,45.9983094 L78.0736755,46.7690264 L77.5479396,46.7690264 L78.6646189,43.8591396 Z" id="Fill-39" fill="#333333" mask="url(#mask-2)"></path>
                            <polygon id="Fill-40" fill="#333333" mask="url(#mask-2)" points="81.0734038 43.8590943 81.611366 43.8590943 82.9399698 46.0023396 82.9481208 46.0023396 82.9481208 43.8590943 83.4331019 43.8590943 83.4331019 46.7689811 82.8951396 46.7689811 81.5706113 44.6293585 81.5583849 44.6293585 81.5583849 46.7689811 81.0734038 46.7689811"></polygon>
                            <path d="M87.0643019,46.7688453 L86.7382642,46.7688453 L86.6608302,46.4265057 C86.5249811,46.5813736 86.3891321,46.6886943 86.253283,46.7484679 C86.117434,46.8082415 85.9612075,46.8381283 85.7846038,46.8381283 C85.5672453,46.8381283 85.3725283,46.7978264 85.1995472,46.7181283 C85.0270189,46.6379774 84.8812075,46.5283925 84.7616604,46.3898264 C84.6421132,46.2512604 84.5501887,46.0896 84.4867925,45.9048453 C84.4229434,45.7200906 84.3907925,45.5231094 84.3907925,45.3139019 C84.3907925,45.1074113 84.4229434,44.9117887 84.4867925,44.727034 C84.5501887,44.5422792 84.6421132,44.3806189 84.7616604,44.2420528 C84.8812075,44.1034868 85.0270189,43.9934491 85.1995472,43.9119396 C85.3725283,43.8304302 85.5672453,43.7896755 85.7846038,43.7896755 C85.9421887,43.7896755 86.0925283,43.8109585 86.234717,43.8530717 C86.3773585,43.8947321 86.5046038,43.9576755 86.616,44.0405434 C86.7273962,44.1229585 86.8197736,44.2271094 86.8931321,44.3520906 C86.9664906,44.4770717 87.0126792,44.6210717 87.0316981,44.7840906 L86.5344906,44.7840906 C86.5209057,44.6889962 86.4914717,44.6056755 86.4470943,44.5332226 C86.4022642,44.4612226 86.3456604,44.4009962 86.2777358,44.3520906 C86.2098113,44.3031849 86.1337358,44.2665057 86.0495094,44.2420528 C85.965283,44.2176 85.8769811,44.2053736 85.7846038,44.2053736 C85.6297358,44.2053736 85.4961509,44.2366189 85.3833962,44.2991094 C85.2706415,44.3620528 85.178717,44.4449208 85.1080755,44.5499774 C85.037434,44.6541283 84.9849057,44.7732226 84.9509434,44.9063547 C84.9169811,45.0394868 84.9002264,45.1753358 84.9002264,45.3139019 C84.9002264,45.4524679 84.9169811,45.5887698 84.9509434,45.7214491 C84.9849057,45.8545811 85.037434,45.9732226 85.1080755,46.0782792 C85.178717,46.1824302 85.2706415,46.2662038 85.3833962,46.3286943 C85.4961509,46.3911849 85.6297358,46.4224302 85.7846038,46.4224302 C85.9150189,46.4251472 86.0304906,46.4079396 86.1310189,46.3712604 C86.2315472,46.3345811 86.3166792,46.2820528 86.3855094,46.212317 C86.4547925,46.143034 86.5073208,46.0583547 86.5426415,45.9578264 C86.5779623,45.8572981 86.5969811,45.7459019 86.5996981,45.6236377 L85.8253585,45.6236377 L85.8253585,45.2364679 L87.0643019,45.2364679 L87.0643019,46.7688453 Z" id="Fill-41" fill="#333333" mask="url(#mask-2)"></path>
                            <polygon id="Fill-42" fill="#333333" mask="url(#mask-2)" points="88.1075321 43.8590943 90.2023245 43.8590943 90.2023245 44.2992453 88.616966 44.2992453 88.616966 45.0609057 90.0841358 45.0609057 90.0841358 45.4770566 88.616966 45.4770566 88.616966 46.3288302 90.2308528 46.3288302 90.2308528 46.7689811 88.1075321 46.7689811"></polygon>
                            <polygon id="Fill-43" fill="#333333" mask="url(#mask-2)" points="91.1559396 43.8590943 91.8732226 43.8590943 92.6760906 46.137283 92.6842415 46.137283 93.4667321 43.8590943 94.1758642 43.8590943 94.1758642 46.7689811 93.690883 46.7689811 93.690883 44.5233962 93.6827321 44.5233962 92.8757887 46.7689811 92.4560151 46.7689811 91.6490717 44.5233962 91.6409208 44.5233962 91.6409208 46.7689811 91.1559396 46.7689811"></polygon>
                            <polygon id="Fill-44" fill="#333333" mask="url(#mask-2)" points="95.2762868 43.8590943 97.3710792 43.8590943 97.3710792 44.2992453 95.7857208 44.2992453 95.7857208 45.0609057 97.2528906 45.0609057 97.2528906 45.4770566 95.7857208 45.4770566 95.7857208 46.3288302 97.3996075 46.3288302 97.3996075 46.7689811 95.2762868 46.7689811"></polygon>
                            <polygon id="Fill-45" fill="#333333" mask="url(#mask-2)" points="98.3125585 43.8590943 98.8505208 43.8590943 100.179125 46.0023396 100.187275 46.0023396 100.187275 43.8590943 100.672257 43.8590943 100.672257 46.7689811 100.134294 46.7689811 98.809766 44.6293585 98.7975396 44.6293585 98.7975396 46.7689811 98.3125585 46.7689811"></polygon>
                            <polygon id="Fill-46" fill="#333333" mask="url(#mask-2)" points="101.487215 43.8590943 103.842838 43.8590943 103.842838 44.2992453 102.917706 44.2992453 102.917706 46.7689811 102.408272 46.7689811 102.408272 44.2992453 101.487215 44.2992453"></polygon>
                            <path d="M108.256664,44.7841811 C108.234928,44.6995019 108.205042,44.6225208 108.167004,44.5514264 C108.128966,44.4812377 108.08006,44.4201057 108.020287,44.368483 C107.960513,44.3168604 107.890325,44.2765585 107.810626,44.2480302 C107.730023,44.2195019 107.637192,44.2054642 107.53123,44.2054642 C107.376362,44.2054642 107.242325,44.2367094 107.130023,44.2992 C107.017268,44.3616906 106.925343,44.4450113 106.854702,44.5496151 C106.78406,44.6542189 106.731532,44.7733132 106.698023,44.9064453 C106.663608,45.0391245 106.646853,45.1754264 106.646853,45.3139925 C106.646853,45.4525585 106.663608,45.5884075 106.698023,45.7210868 C106.731532,45.8546717 106.78406,45.9733132 106.854702,46.077917 C106.925343,46.1825208 107.017268,46.2658415 107.130023,46.3287849 C107.242325,46.3912755 107.376362,46.4225208 107.53123,46.4225208 C107.645343,46.4225208 107.745872,46.4025962 107.832815,46.3632 C107.919758,46.3238038 107.994475,46.2694642 108.056966,46.2001811 C108.119457,46.1313509 108.168362,46.0502943 108.203683,45.957917 C108.239004,45.8655396 108.262098,45.7663698 108.272966,45.6604075 L108.770174,45.6604075 C108.759306,45.8342943 108.721721,45.9932377 108.658325,46.1372377 C108.594475,46.2812377 108.507985,46.4053132 108.399306,46.5103698 C108.290626,46.6145208 108.162928,46.6955774 108.016211,46.752634 C107.869494,46.8096906 107.707834,46.8382189 107.53123,46.8382189 C107.313872,46.8382189 107.118702,46.797917 106.946174,46.7182189 C106.774098,46.6380679 106.627834,46.528483 106.508287,46.389917 C106.38874,46.2513509 106.296815,46.0896906 106.233419,45.9049358 C106.16957,45.7197283 106.137419,45.5232 106.137419,45.3139925 C106.137419,45.1075019 106.16957,44.9118792 106.233419,44.7271245 C106.296815,44.5423698 106.38874,44.3802566 106.508287,44.2421434 C106.627834,44.1035774 106.774098,43.9935396 106.946174,43.9120302 C107.118702,43.8305208 107.313872,43.789766 107.53123,43.789766 C107.694249,43.789766 107.847758,43.8124075 107.991758,43.8567849 C108.135758,43.9020679 108.263004,43.9668226 108.372589,44.0528604 C108.483079,44.1379925 108.571834,44.2421434 108.639758,44.3644075 C108.707683,44.4866717 108.749796,44.6265962 108.766098,44.7841811 L108.256664,44.7841811 Z" id="Fill-47" fill="#333333" mask="url(#mask-2)"></path>
                            <path d="M110.962596,44.2053283 C110.807728,44.2053283 110.673691,44.2365736 110.561389,44.2990642 C110.448634,44.3620075 110.356709,44.4448755 110.286068,44.5499321 C110.215426,44.654083 110.162898,44.7731774 110.129389,44.9063094 C110.094974,45.0394415 110.078219,45.1757434 110.078219,45.3138566 C110.078219,45.4524226 110.094974,45.5887245 110.129389,45.7214038 C110.162898,45.8549887 110.215426,45.9731774 110.286068,46.078234 C110.356709,46.1823849 110.448634,46.2661585 110.561389,46.3286491 C110.673691,46.3911396 110.807728,46.4223849 110.962596,46.4223849 C111.117464,46.4223849 111.251502,46.3911396 111.364257,46.3286491 C111.476558,46.2661585 111.568483,46.1823849 111.639125,46.078234 C111.709766,45.9731774 111.762294,45.8549887 111.796257,45.7214038 C111.830219,45.5887245 111.846974,45.4524226 111.846974,45.3138566 C111.846974,45.1757434 111.830219,45.0394415 111.796257,44.9063094 C111.762294,44.7731774 111.709766,44.654083 111.639125,44.5499321 C111.568483,44.4448755 111.476558,44.3620075 111.364257,44.2990642 C111.251502,44.2365736 111.117464,44.2053283 110.962596,44.2053283 M110.962596,43.7896302 C111.179955,43.7896302 111.375125,43.8303849 111.547653,43.9123472 C111.719728,43.9934038 111.865992,44.1034415 111.98554,44.2420075 C112.105087,44.3805736 112.197011,44.542234 112.26086,44.7269887 C112.324257,44.9121962 112.356408,45.107366 112.356408,45.3138566 C112.356408,45.5230642 112.324257,45.7200453 112.26086,45.9048 C112.197011,46.0895547 112.105087,46.2516679 111.98554,46.3897811 C111.865992,46.5283472 111.719728,46.6379321 111.547653,46.718083 C111.375125,46.798234 111.179955,46.838083 110.962596,46.838083 C110.745238,46.838083 110.550068,46.798234 110.37754,46.718083 C110.205464,46.6379321 110.0592,46.5283472 109.939653,46.3897811 C109.820106,46.2516679 109.728181,46.0895547 109.664785,45.9048 C109.600936,45.7200453 109.568785,45.5230642 109.568785,45.3138566 C109.568785,45.107366 109.600936,44.9121962 109.664785,44.7269887 C109.728181,44.542234 109.820106,44.3805736 109.939653,44.2420075 C110.0592,44.1034415 110.205464,43.9934038 110.37754,43.9123472 C110.550068,43.8303849 110.745238,43.7896302 110.962596,43.7896302" id="Fill-48" fill="#333333" mask="url(#mask-2)"></path>
                            <polygon id="Fill-49" fill="#333333" mask="url(#mask-2)" points="113.289781 43.8590943 113.827743 43.8590943 115.156347 46.0023396 115.164498 46.0023396 115.164498 43.8590943 115.649479 43.8590943 115.649479 46.7689811 115.111517 46.7689811 113.786989 44.6293585 113.774762 44.6293585 113.774762 46.7689811 113.289781 46.7689811"></polygon>
                            <path d="M117.075804,45.7990642 C117.075804,45.9104604 117.094823,46.0055547 117.13286,46.0843472 C117.170898,46.1631396 117.223879,46.2274415 117.291804,46.2777057 C117.359728,46.3279698 117.438068,46.3646491 117.52637,46.3877434 C117.614219,46.4112906 117.710219,46.4226113 117.813464,46.4226113 C117.92486,46.4226113 118.019955,46.4099321 118.098747,46.3836679 C118.17754,46.3578566 118.241389,46.3243472 118.290294,46.2835925 C118.3392,46.2428377 118.374521,46.1961962 118.396257,46.1432151 C118.417992,46.0906868 118.42886,46.0363472 118.42886,45.9820075 C118.42886,45.8706113 118.403955,45.7891019 118.353691,45.7356679 C118.302974,45.6826868 118.248181,45.6455547 118.188408,45.623366 C118.085162,45.5853283 117.964709,45.5495547 117.827955,45.5155925 C117.690294,45.4816302 117.521389,45.4377057 117.320332,45.383366 C117.195351,45.3507623 117.091653,45.3077434 117.008785,45.2547623 C116.925464,45.2017811 116.859804,45.1429132 116.810898,45.0772528 C116.761992,45.0124981 116.727125,44.9427623 116.7072,44.8694038 C116.686823,44.7960453 116.676408,44.7217811 116.676408,44.6452528 C116.676408,44.4989887 116.7072,44.3721962 116.768332,44.2644226 C116.829464,44.1571019 116.910068,44.0683472 117.010596,43.9972528 C117.111125,43.9266113 117.225238,43.8745358 117.352936,43.8405736 C117.480634,43.8070642 117.609691,43.7898566 117.740106,43.7898566 C117.892257,43.7898566 118.035804,43.8093283 118.170294,43.8487245 C118.304785,43.8881208 118.422974,43.9474415 118.52486,44.026234 C118.626747,44.1050264 118.707351,44.2023849 118.767125,44.3178566 C118.826898,44.4328755 118.856785,44.5664604 118.856785,44.7186113 L118.347351,44.7186113 C118.333766,44.5311396 118.269917,44.3989132 118.155804,44.3214792 C118.041691,44.2440453 117.896332,44.2051019 117.719728,44.2051019 C117.659955,44.2051019 117.598823,44.2114415 117.536332,44.2236679 C117.473842,44.2358943 117.416785,44.2562717 117.365162,44.2848 C117.31354,44.3133283 117.270974,44.3522717 117.236558,44.4011774 C117.203049,44.450083 117.185842,44.5107623 117.185842,44.5841208 C117.185842,44.6878189 117.21754,44.7688755 117.281842,44.8272906 C117.345691,44.8852528 117.429011,44.9296302 117.532257,44.959517 C117.543125,44.9617811 117.585691,44.9735547 117.66086,44.9939321 C117.735577,45.0147623 117.818898,45.0364981 117.911275,45.0609509 C118.003653,45.0858566 118.094219,45.1098566 118.182521,45.1324981 C118.270823,45.1555925 118.333766,45.1723472 118.371804,45.1836679 C118.466898,45.2135547 118.549766,45.2543094 118.620408,45.3054792 C118.691049,45.3571019 118.75037,45.4164226 118.797917,45.4829887 C118.845464,45.5495547 118.880332,45.6206491 118.903879,45.6967245 C118.926521,45.7728 118.938294,45.8488755 118.938294,45.9249509 C118.938294,46.0884226 118.905238,46.2274415 118.838672,46.3429132 C118.772106,46.4583849 118.684257,46.5530264 118.575577,46.6259321 C118.466898,46.6992906 118.343275,46.7531774 118.204709,46.7871396 C118.066143,46.8211019 117.92486,46.8383094 117.78086,46.8383094 C117.615125,46.8383094 117.458898,46.8179321 117.312181,46.7767245 C117.165464,46.7359698 117.037766,46.6739321 116.929087,46.5892528 C116.820408,46.5054792 116.733464,46.3972528 116.668257,46.2654792 C116.603049,46.1337057 116.569087,45.9783849 116.56637,45.7990642 L117.075804,45.7990642 Z" id="Fill-50" fill="#333333" mask="url(#mask-2)"></path>
                            <path d="M119.839019,43.8590943 L120.348453,43.8590943 L120.348453,45.5544906 C120.348453,45.6523019 120.353434,45.7514717 120.362943,45.8515472 C120.372453,45.9525283 120.399623,46.0426415 120.444453,46.1227925 C120.489283,46.2033962 120.556755,46.2690566 120.648226,46.3206792 C120.739245,46.3723019 120.867396,46.3976604 121.033132,46.3976604 C121.198868,46.3976604 121.327472,46.3723019 121.418491,46.3206792 C121.509057,46.2690566 121.577434,46.2033962 121.622264,46.1227925 C121.667094,46.0426415 121.694264,45.9525283 121.703774,45.8515472 C121.713283,45.7514717 121.717811,45.6523019 121.717811,45.5544906 L121.717811,43.8590943 L122.227245,43.8590943 L122.227245,45.7211321 C122.227245,45.9086038 122.198717,46.0720755 122.14166,46.2101887 C122.084604,46.3492075 122.004,46.4651321 121.899396,46.5588679 C121.794792,46.6526038 121.668906,46.7227925 121.522189,46.7689811 C121.375472,46.814717 121.212453,46.8382642 121.033132,46.8382642 C120.853811,46.8382642 120.690792,46.814717 120.544075,46.7689811 C120.397358,46.7227925 120.271925,46.6526038 120.167321,46.5588679 C120.062717,46.4651321 119.98166,46.3492075 119.924604,46.2101887 C119.867547,46.0720755 119.839019,45.9086038 119.839019,45.7211321 L119.839019,43.8590943 Z" id="Fill-51" fill="#333333" mask="url(#mask-2)"></path>
                            <polygon id="Fill-52" fill="#333333" mask="url(#mask-2)" points="123.303351 43.8590943 123.812785 43.8590943 123.812785 46.3288302 125.292181 46.3288302 125.292181 46.7689811 123.303351 46.7689811"></polygon>
                            <polygon id="Fill-53" fill="#333333" mask="url(#mask-2)" points="125.479517 43.8590943 127.83514 43.8590943 127.83514 44.2992453 126.910008 44.2992453 126.910008 46.7689811 126.400574 46.7689811 126.400574 44.2992453 125.479517 44.2992453"></polygon>
                            <polygon id="Fill-54" fill="#333333" mask="url(#mask-2)" points="128.662189 46.7687547 129.171623 46.7687547 129.171623 43.8588679 128.662189 43.8588679"></polygon>
                            <polygon id="Fill-55" fill="#333333" mask="url(#mask-2)" points="130.264075 43.8590943 130.802038 43.8590943 132.130642 46.0023396 132.138792 46.0023396 132.138792 43.8590943 132.623774 43.8590943 132.623774 46.7689811 132.085811 46.7689811 130.761283 44.6293585 130.749057 44.6293585 130.749057 46.7689811 130.264075 46.7689811"></polygon>
                            <path d="M136.2552,46.7688453 L135.929162,46.7688453 L135.851728,46.4265057 C135.715879,46.5813736 135.58003,46.6886943 135.444181,46.7484679 C135.308332,46.8082415 135.151653,46.8381283 134.975502,46.8381283 C134.758143,46.8381283 134.563426,46.7978264 134.390898,46.7181283 C134.217917,46.6379774 134.072106,46.5283925 133.952558,46.3898264 C133.833011,46.2512604 133.741087,46.0896 133.677691,45.9048453 C133.613389,45.7200906 133.581691,45.5231094 133.581691,45.3139019 C133.581691,45.1074113 133.613389,44.9117887 133.677691,44.727034 C133.741087,44.5422792 133.833011,44.3806189 133.952558,44.2420528 C134.072106,44.1034868 134.217917,43.9934491 134.390898,43.9119396 C134.563426,43.8304302 134.758143,43.7896755 134.975502,43.7896755 C135.132634,43.7896755 135.283426,43.8109585 135.426068,43.8530717 C135.568257,43.8947321 135.695502,43.9576755 135.806898,44.0405434 C135.918294,44.1229585 136.010672,44.2271094 136.08403,44.3520906 C136.157389,44.4770717 136.203577,44.6210717 136.222596,44.7840906 L135.725389,44.7840906 C135.711804,44.6889962 135.68237,44.6056755 135.637992,44.5332226 C135.592709,44.4612226 135.536558,44.4009962 135.468634,44.3520906 C135.400709,44.3031849 135.324634,44.2665057 135.240408,44.2420528 C135.156181,44.2176 135.067879,44.2053736 134.975502,44.2053736 C134.820634,44.2053736 134.686596,44.2366189 134.573842,44.2991094 C134.461087,44.3620528 134.369615,44.4449208 134.298974,44.5499774 C134.227879,44.6541283 134.175804,44.7732226 134.141842,44.9063547 C134.108332,45.0394868 134.091125,45.1753358 134.091125,45.3139019 C134.091125,45.4524679 134.108332,45.5887698 134.141842,45.7214491 C134.175804,45.8545811 134.227879,45.9732226 134.298974,46.0782792 C134.369615,46.1824302 134.461087,46.2662038 134.573842,46.3286943 C134.686596,46.3911849 134.820634,46.4224302 134.975502,46.4224302 C135.105917,46.4251472 135.221389,46.4079396 135.321917,46.3712604 C135.422445,46.3345811 135.507577,46.2820528 135.57686,46.212317 C135.645691,46.143034 135.698219,46.0583547 135.73354,45.9578264 C135.76886,45.8572981 135.787879,45.7459019 135.790596,45.6236377 L135.016257,45.6236377 L135.016257,45.2364679 L136.2552,45.2364679 L136.2552,46.7688453 Z" id="Fill-56" fill="#333333" mask="url(#mask-2)"></path>
                            <path d="M140.8848,44.7841811 C140.862611,44.6995019 140.833177,44.6225208 140.79514,44.5514264 C140.757102,44.4812377 140.707743,44.4201057 140.648423,44.368483 C140.588649,44.3168604 140.51846,44.2765585 140.438309,44.2480302 C140.358158,44.2195019 140.265328,44.2054642 140.158913,44.2054642 C140.004498,44.2054642 139.87046,44.2367094 139.757706,44.2992 C139.644951,44.3616906 139.553479,44.4450113 139.482385,44.5496151 C139.411743,44.6542189 139.359668,44.7733132 139.325706,44.9064453 C139.291743,45.0391245 139.274536,45.1754264 139.274536,45.3139925 C139.274536,45.4525585 139.291743,45.5884075 139.325706,45.7210868 C139.359668,45.8546717 139.411743,45.9733132 139.482385,46.077917 C139.553479,46.1825208 139.644951,46.2658415 139.757706,46.3287849 C139.87046,46.3912755 140.004498,46.4225208 140.158913,46.4225208 C140.273026,46.4225208 140.373555,46.4025962 140.460498,46.3632 C140.547894,46.3238038 140.622611,46.2694642 140.685102,46.2001811 C140.74714,46.1313509 140.796498,46.0502943 140.831819,45.957917 C140.866687,45.8655396 140.890234,45.7663698 140.900649,45.6604075 L141.398309,45.6604075 C141.386989,45.8342943 141.349857,45.9932377 141.286008,46.1372377 C141.222158,46.2812377 141.136121,46.4053132 141.026989,46.5103698 C140.918309,46.6145208 140.791064,46.6955774 140.644347,46.752634 C140.49763,46.8096906 140.335517,46.8382189 140.158913,46.8382189 C139.941555,46.8382189 139.746838,46.797917 139.574309,46.7182189 C139.401781,46.6380679 139.255517,46.528483 139.136423,46.389917 C139.016423,46.2513509 138.924951,46.0896906 138.861102,45.9049358 C138.797253,45.7197283 138.765102,45.5232 138.765102,45.3139925 C138.765102,45.1075019 138.797253,44.9118792 138.861102,44.7271245 C138.924951,44.5423698 139.016423,44.3802566 139.136423,44.2421434 C139.255517,44.1035774 139.401781,43.9935396 139.574309,43.9120302 C139.746838,43.8305208 139.941555,43.789766 140.158913,43.789766 C140.322385,43.789766 140.475894,43.8124075 140.619442,43.8567849 C140.763442,43.9020679 140.890687,43.9668226 141.000725,44.0528604 C141.110762,44.1379925 141.199517,44.2421434 141.267894,44.3644075 C141.335366,44.4866717 141.377932,44.6265962 141.394234,44.7841811 L140.8848,44.7841811 Z" id="Fill-57" fill="#333333" mask="url(#mask-2)"></path>
                            <path d="M143.590732,44.2053283 C143.435864,44.2053283 143.301826,44.2365736 143.189072,44.2990642 C143.076317,44.3620075 142.984845,44.4448755 142.914204,44.5499321 C142.843562,44.654083 142.791034,44.7731774 142.757072,44.9063094 C142.723562,45.0394415 142.706355,45.1757434 142.706355,45.3138566 C142.706355,45.4524226 142.723562,45.5887245 142.757072,45.7214038 C142.791034,45.8549887 142.843562,45.9731774 142.914204,46.078234 C142.984845,46.1823849 143.076317,46.2661585 143.189072,46.3286491 C143.301826,46.3911396 143.435864,46.4223849 143.590732,46.4223849 C143.7456,46.4223849 143.879638,46.3911396 143.992392,46.3286491 C144.105147,46.2661585 144.196619,46.1823849 144.26726,46.078234 C144.337902,45.9731774 144.39043,45.8549887 144.424392,45.7214038 C144.458355,45.5887245 144.475109,45.4524226 144.475109,45.3138566 C144.475109,45.1757434 144.458355,45.0394415 144.424392,44.9063094 C144.39043,44.7731774 144.337902,44.654083 144.26726,44.5499321 C144.196619,44.4448755 144.105147,44.3620075 143.992392,44.2990642 C143.879638,44.2365736 143.7456,44.2053283 143.590732,44.2053283 M143.590732,43.7896302 C143.808091,43.7896302 144.002808,43.8303849 144.175789,43.9123472 C144.348317,43.9934038 144.494128,44.1034415 144.613675,44.2420075 C144.733223,44.3805736 144.825147,44.542234 144.888543,44.7269887 C144.952845,44.9121962 144.984543,45.107366 144.984543,45.3138566 C144.984543,45.5230642 144.952845,45.7200453 144.888543,45.9048 C144.825147,46.0895547 144.733223,46.2516679 144.613675,46.3897811 C144.494128,46.5283472 144.348317,46.6379321 144.175789,46.718083 C144.002808,46.798234 143.808091,46.838083 143.590732,46.838083 C143.373374,46.838083 143.178657,46.798234 143.006128,46.718083 C142.833147,46.6379321 142.687336,46.5283472 142.567789,46.3897811 C142.448242,46.2516679 142.356317,46.0895547 142.292921,45.9048 C142.228619,45.7200453 142.196921,45.5230642 142.196921,45.3138566 C142.196921,45.107366 142.228619,44.9121962 142.292921,44.7269887 C142.356317,44.542234 142.448242,44.3805736 142.567789,44.2420075 C142.687336,44.1034415 142.833147,43.9934038 143.006128,43.9123472 C143.178657,43.8303849 143.373374,43.7896302 143.590732,43.7896302" id="Fill-58" fill="#333333" mask="url(#mask-2)"></path>
                            <polygon id="Fill-59" fill="#333333" mask="url(#mask-2)" points="145.909585 46.7687547 146.476075 46.7687547 146.476075 46.218566 145.909585 46.218566"></polygon>
                            <path d="M147.531758,46.2187472 L148.098249,46.2187472 L148.098249,46.7689358 C148.095532,46.9373887 148.043909,47.0782189 147.943381,47.1923321 C147.842853,47.3068981 147.711079,47.3798038 147.54806,47.4128604 L147.54806,47.1642566 C147.637721,47.1425208 147.705192,47.0931623 147.74957,47.0157283 C147.7944,46.9378415 147.815683,46.8558792 147.812966,46.7689358 L147.531758,46.7689358 L147.531758,46.2187472 Z" id="Fill-60" fill="#333333" mask="url(#mask-2)"></path>
                            <polygon id="Fill-61" fill="#333333" mask="url(#mask-2)" points="149.182098 43.8590943 149.691532 43.8590943 149.691532 46.3288302 151.171381 46.3288302 151.171381 46.7689811 149.182098 46.7689811"></polygon>
                            <polygon id="Fill-62" fill="#333333" mask="url(#mask-2)" points="151.358717 43.8590943 153.71434 43.8590943 153.71434 44.2992453 152.789208 44.2992453 152.789208 46.7689811 152.279774 46.7689811 152.279774 44.2992453 151.358717 44.2992453"></polygon>
                            <path d="M155.050777,46.3531925 L155.55206,46.3531925 C155.7504,46.3531925 155.912966,46.3264755 156.039306,46.2734943 C156.165645,46.2205132 156.264815,46.1476075 156.336815,46.0538717 C156.408815,45.9601358 156.457268,45.8500981 156.483532,45.7233057 C156.509343,45.596966 156.522023,45.4606642 156.522023,45.3139472 C156.522023,45.1672302 156.509343,45.0304755 156.483532,44.9045887 C156.457268,44.7777962 156.408815,44.6677585 156.336815,44.5740226 C156.264815,44.4802868 156.165645,44.4069283 156.039306,44.3544 C155.912966,44.3014189 155.7504,44.2747019 155.55206,44.2747019 L155.050777,44.2747019 L155.050777,46.3531925 Z M154.541343,43.8590038 L155.747683,43.8590038 C155.970475,43.8590038 156.163381,43.8970415 156.3264,43.973117 C156.489872,44.0491925 156.623004,44.1533434 156.725796,44.285117 C156.829494,44.4168906 156.906023,44.5708528 156.956287,44.7474566 C157.006551,44.9240604 157.031457,45.1128906 157.031457,45.3139472 C157.031457,45.5150038 157.006551,45.703834 156.956287,45.8804377 C156.906023,46.0570415 156.829494,46.2114566 156.725796,46.3432302 C156.623004,46.4750038 156.489872,46.5787019 156.3264,46.6547774 C156.163381,46.7308528 155.970475,46.7688906 155.747683,46.7688906 L154.541343,46.7688906 L154.541343,43.8590038 Z" id="Fill-63" fill="#333333" mask="url(#mask-2)"></path>
                            <polygon id="Fill-64" fill="#333333" mask="url(#mask-2)" points="157.944 46.7687547 158.510491 46.7687547 158.510491 46.218566 157.944 46.218566"></polygon>
                        </g>
                    </g>
                </g>
            </g>
        </g>
    </g>
</svg>