<?xml version="1.0" encoding="UTF-8"?>
<svg width="96px" height="96px" viewBox="0 0 96 96" version="1.1" xmlns="http://www.w3.org/2000/svg" xmlns:xlink="http://www.w3.org/1999/xlink">
    <!-- Generator: Sketch 61.2 (89653) - https://sketch.com -->
    <title>icon_display_learn</title>
    <desc>Created with Sketch.</desc>
    <g id="Page-1" stroke="none" stroke-width="1" fill="none" fill-rule="evenodd">
        <g id="home" transform="translate(-912.000000, -2770.000000)">
            <g id="学习资源" transform="translate(0.000000, 2528.000000)">
                <g id="首页/学习资源/类目-copy" transform="translate(912.000000, 242.000000)">
                    <g id="icon/display/publish">
                        <g id="icon/display/learn">
                            <g id="Group" transform="translate(13.000000, 15.000000)" fill="#F47E14" fill-rule="nonzero">
                                <path d="M70,2 L70,52 C70,53.1045695 69.1045695,54 68,54 L2,54 C0.8954305,54 1.3527075e-16,53.1045695 0,52 L0,2 C-1.3527075e-16,0.8954305 0.8954305,2.02906125e-16 2,0 L68,0 C69.1045695,-2.02906125e-16 70,0.8954305 70,2 Z M6,7 L6,47 C6,47.5522847 6.44771525,48 7,48 L63,48 C63.5522847,48 64,47.5522847 64,47 L64,7 C64,6.44771525 63.5522847,6 63,6 L7,6 C6.44771525,6 6,6.44771525 6,7 Z" id="Rectangle"></path>
                                <path d="M9,67 L61,67 C62.1045695,67 63,66.1045695 63,65 L63,63 C63,61.8954305 62.1045695,61 61,61 L9,61 C7.8954305,61 7,61.8954305 7,63 L7,65 C7,66.1045695 7.8954305,67 9,67 Z" id="Path"></path>
                                <path d="M19,22 L51,22 C52.1045695,22 53,21.1045695 53,20 L53,18 C53,16.8954305 52.1045695,16 51,16 L19,16 C17.8954305,16 17,16.8954305 17,18 L17,20 C17,21.1045695 17.8954305,22 19,22 Z" id="Path-Copy"></path>
                                <path d="M19,39 L51,39 C52.1045695,39 53,38.1045695 53,37 L53,35 C53,33.8954305 52.1045695,33 51,33 L19,33 C17.8954305,33 17,33.8954305 17,35 L17,37 C17,38.1045695 17.8954305,39 19,39 Z" id="Path-Copy-2"></path>
                            </g>
                            <g id="empty">
                                <rect x="0" y="0" width="96" height="96"></rect>
                            </g>
                        </g>
                    </g>
                </g>
            </g>
        </g>
    </g>
</svg>