<?xml version="1.0" encoding="UTF-8"?>
<svg width="96px" height="96px" viewBox="0 0 96 96" version="1.1" xmlns="http://www.w3.org/2000/svg" xmlns:xlink="http://www.w3.org/1999/xlink">
    <!-- Generator: Sketch 61.2 (89653) - https://sketch.com -->
    <title>icon_display_video</title>
    <desc>Created with Sketch.</desc>
    <g id="Page-1" stroke="none" stroke-width="1" fill="none" fill-rule="evenodd">
        <g id="home" transform="translate(-1311.000000, -2770.000000)">
            <g id="学习资源" transform="translate(0.000000, 2528.000000)">
                <g id="首页/学习资源/类目-copy-2" transform="translate(1311.000000, 242.000000)">
                    <g id="icon/display/publish">
                        <g id="icon/display/video">
                            <g id="Group" transform="translate(17.000000, 13.000000)" fill="#F47E14" fill-rule="nonzero">
                                <path d="M53,11 L53,69 C53,70.1045695 52.1045695,71 51,71 L2,71 C0.8954305,71 1.3527075e-16,70.1045695 0,69 L0,11 C-1.3527075e-16,9.8954305 0.8954305,9 2,9 L51,9 C52.1045695,9 53,9.8954305 53,11 Z M5,16 L5,64 C5,64.5522847 5.44771525,65 6,65 L46,65 C46.5522847,65 47,64.5522847 47,64 L47,16 C47,15.4477153 46.5522847,15 46,15 L6,15 C5.44771525,15 5,15.4477153 5,16 Z" id="Rectangle"></path>
                                <path d="M56.5,8 L56.5,51 C56.5,52.1045695 57.3954305,53 58.5,53 L60.5,53 C61.6045695,53 62.5,52.1045695 62.5,51 L62.5,2 C62.5,0.8954305 61.6045695,-2.02906125e-16 60.5,0 L22,0 C20.8954305,2.02906125e-16 20,0.8954305 20,2 L20,4 C20,5.1045695 20.8954305,6 22,6 L54.5,6 C55.6045695,6 56.5,6.8954305 56.5,8 Z" id="Path"></path>
                                <path d="M42.1322274,53.7531881 L16.5661137,53.7531881 C15.4615442,53.7531881 14.5661137,52.8577576 14.5661137,51.7531881 C14.5661137,51.3851786 14.6676514,51.0243039 14.85955,50.7102881 L27.6426069,29.7925587 C28.2185846,28.8500496 29.4495614,28.5529173 30.3920705,29.1288951 C30.6628023,29.2943423 30.890287,29.5218269 31.0557342,29.7925587 L43.838791,50.7102881 C44.4147688,51.6527972 44.1176365,52.883774 43.1751274,53.4597518 C42.8611115,53.6516503 42.5002369,53.7531881 42.1322274,53.7531881 Z M25.4813979,47.7531881 L33.2169432,47.7531881 C33.7692279,47.7531881 34.2169432,47.3054729 34.2169432,46.7531881 C34.2169432,46.5691834 34.1661743,46.388746 34.070225,46.2317381 L30.2024524,39.9026556 C29.9144635,39.4314011 29.2989751,39.2828349 28.8277205,39.5708238 C28.6923546,39.6535474 28.5786123,39.7672897 28.4958887,39.9026556 L24.628116,46.2317381 C24.3401272,46.7029927 24.4886933,47.3184811 24.9599479,47.60647 C25.1169558,47.7024192 25.2973931,47.7531881 25.4813979,47.7531881 Z" id="Triangle" transform="translate(29.349171, 40.376594) rotate(-270.000000) translate(-29.349171, -40.376594) "></path>
                            </g>
                            <g id="empty" transform="translate(0.000000, 4.000000)">
                                <rect x="0" y="0" width="96" height="96"></rect>
                            </g>
                        </g>
                    </g>
                </g>
            </g>
        </g>
    </g>
</svg>