<?xml version="1.0" encoding="UTF-8"?>
<svg width="96px" height="96px" viewBox="0 0 96 96" version="1.1" xmlns="http://www.w3.org/2000/svg" xmlns:xlink="http://www.w3.org/1999/xlink">
    <!-- Generator: Sketch 61.2 (89653) - https://sketch.com -->
    <title>icon_display_publish</title>
    <desc>Created with Sketch.</desc>
    <g id="Page-1" stroke="none" stroke-width="1" fill="none" fill-rule="evenodd">
        <g id="home" transform="translate(-513.000000, -2777.000000)">
            <g id="学习资源" transform="translate(0.000000, 2528.000000)">
                <g id="首页/学习资源/类目" transform="translate(503.000000, 242.000000)">
                    <g id="icon/display/publish" transform="translate(10.000000, 7.000000)">
                        <g>
                            <g id="Group" transform="translate(17.000000, 8.000000)" fill="#F47E14" fill-rule="nonzero">
                                <path d="M55,77 L7,77 C6.44771525,77 6,76.5522847 6,76 L6,10.5 L6,10.5 L0,10.5 L0,81 C1.3527075e-16,82.1045695 0.8954305,83 2,83 L60,83 C61.1045695,83 62,82.1045695 62,81 L62,18 L62,18 L56,18 L56,76 C56,76.5522847 55.5522847,77 55,77 Z M6,10.5 L0,10.5 L0,18 L6,18 L6,10.5 Z" id="Path"></path>
                                <path d="M52,0 C53.1045695,-2.02906125e-16 54,0.8954305 54,2 L54,2 L54,15 L60,15 C61.0543618,15 61.9181651,15.8158778 61.9945143,16.8507377 L62,17 L62,21 L10.5,21 C4.70101013,21 0,16.2989899 0,10.5 C0,4.70101013 4.70101013,0 10.5,0 L10.5,0 Z M48,15 L48,6 L10.5,6 C8.08572667,6 6.11551091,7.90123652 6.00489799,10.2881643 L6,10.5 C6,12.9852814 8.01471863,15 10.5,15 L10.5,15 L48,15 Z" id="Combined-Shape"></path>
                                <path d="M16,45.5 L46,45.5 C47.1045695,45.5 48,44.6045695 48,43.5 L48,41.5 C48,40.3954305 47.1045695,39.5 46,39.5 L16,39.5 C14.8954305,39.5 14,40.3954305 14,41.5 L14,43.5 C14,44.6045695 14.8954305,45.5 16,45.5 Z" id="Path-3"></path>
                                <path d="M16,62.5 L46,62.5 C47.1045695,62.5 48,61.6045695 48,60.5 L48,58.5 C48,57.3954305 47.1045695,56.5 46,56.5 L16,56.5 C14.8954305,56.5 14,57.3954305 14,58.5 L14,60.5 C14,61.6045695 14.8954305,62.5 16,62.5 Z" id="Path-3-Copy"></path>
                            </g>
                            <g id="empty">
                                <rect x="0" y="0" width="96" height="96"></rect>
                            </g>
                        </g>
                    </g>
                </g>
            </g>
        </g>
    </g>
</svg>