<?xml version="1.0" encoding="UTF-8"?>
<svg width="60px" height="60px" viewBox="0 0 60 60" version="1.1" xmlns="http://www.w3.org/2000/svg" xmlns:xlink="http://www.w3.org/1999/xlink">
    <!-- Generator: Sketch 61.2 (89653) - https://sketch.com -->
    <title>icon_display_play copy 2</title>
    <desc>Created with Sketch.</desc>
    <g id="Page-1" stroke="none" stroke-width="1" fill="none" fill-rule="evenodd">
        <g id="home" transform="translate(-935.000000, -4072.000000)">
            <g id="企业风采" transform="translate(0.000000, 3449.000000)">
                <g id="icon/display/play" transform="translate(935.000000, 623.000000)">
                    <g>
                        <circle id="Oval" stroke="#FFFFFF" stroke-width="3.125" cx="30" cy="30" r="23.4375"></circle>
                        <circle id="Oval" stroke="#FFFFFF" stroke-width="3.125" cx="30" cy="30" r="23.4375"></circle>
                        <path d="M33.1679309,23.1553718 L42.0943902,36.310154 C42.578935,37.0242201 42.3928713,37.9958861 41.6788053,38.4804309 C41.4199374,38.6560913 41.1142998,38.75 40.8014593,38.75 L22.9485407,38.75 C22.0855957,38.75 21.3860407,38.0504449 21.3860407,37.1875 C21.3860407,36.8746595 21.4799494,36.569022 21.6556098,36.310154 L30.5820691,23.1553718 C31.0666139,22.4413058 32.0382799,22.2552421 32.752346,22.7397869 C32.915915,22.8507802 33.0569376,22.9918028 33.1679309,23.1553718 Z" id="Triangle" fill="#FFFFFF" transform="translate(31.875000, 30.000000) rotate(-270.000000) translate(-31.875000, -30.000000) "></path>
                        <g id="empty">
                            <rect x="0" y="0" width="60" height="60"></rect>
                        </g>
                    </g>
                </g>
            </g>
        </g>
    </g>
</svg>